<svg width="90" height="40" viewBox="0 0 90 40" fill="none" xmlns="http://www.w3.org/2000/svg">
<path d="M1.93143 40L0 35.8069C0.962125 35.2827 1.73039 34.8232 2.31915 34.4283C2.90792 34.0334 3.35308 33.6169 3.65464 33.1933C3.9562 32.7697 4.16442 32.2671 4.27212 31.6927C4.37982 31.1183 4.43726 30.3788 4.43726 29.4741V10.2387H9.94436V29.3951C9.94436 30.9603 9.82947 32.2671 9.59253 33.3226C9.36277 34.378 8.94633 35.2827 8.35757 36.0366C7.7688 36.7905 6.95028 37.4655 5.90917 38.0686C4.86807 38.6717 3.53976 39.3179 1.92425 40H1.93143ZM4.43726 6.9072V2.26172H9.94436V6.9072H4.43726Z" fill="white"/>
<path d="M19.8528 31.3264C17.7132 31.3264 16.1048 30.7879 15.0206 29.7037C13.9365 28.6195 13.3979 26.9825 13.3979 24.7926C13.3979 23.256 13.6708 22.057 14.2237 21.1954C14.7693 20.3338 15.5879 19.7019 16.672 19.307C17.7562 18.9121 19.0774 18.668 20.6426 18.589L25.6543 18.1367V16.9017C25.6543 15.918 25.4102 15.2216 24.9147 14.8267C24.4193 14.4318 23.6941 14.2307 22.7392 14.2307C21.9709 14.2307 21.0878 14.2594 20.0897 14.3169C19.0917 14.3743 18.1009 14.4389 17.1316 14.5251C16.1551 14.6041 15.315 14.6902 14.6042 14.7692L14.4391 10.9064C15.1499 10.7412 16.0043 10.5689 17.0095 10.3894C18.0075 10.2099 19.0558 10.0663 20.1544 9.9586C21.2529 9.8509 22.2653 9.79346 23.1987 9.79346C24.9506 9.79346 26.4154 10.016 27.6001 10.454C28.7776 10.892 29.6679 11.61 30.271 12.6152C30.8742 13.6132 31.1757 14.9631 31.1757 16.6648V26.0778C31.2332 26.4655 31.4342 26.7527 31.7932 26.9609C32.1522 27.1692 32.5615 27.3128 33.0282 27.3917L32.9061 31.1756C32.2456 31.2043 31.6065 31.2187 30.9747 31.2187C30.3428 31.2187 29.8115 31.1756 29.3735 31.0966C28.7417 31.0177 28.2032 30.8525 27.7508 30.6012C27.2985 30.3571 26.9323 30.0914 26.6595 29.8186C26.2215 30.0124 25.6327 30.2279 24.8932 30.4792C24.1536 30.7233 23.3495 30.9315 22.4879 31.0966C21.6263 31.2618 20.7575 31.3408 19.8743 31.3408L19.8528 31.3264ZM21.1668 27.2553C21.6837 27.2553 22.2366 27.1979 22.811 27.0902C23.3854 26.9825 23.9311 26.8532 24.4337 26.7024C24.9435 26.5517 25.3455 26.4081 25.6471 26.2716V21.5472L21.454 21.9134C20.5493 21.9995 19.8959 22.2652 19.501 22.7175C19.1061 23.1699 18.905 23.8089 18.905 24.6274C18.905 25.4459 19.0917 26.0921 19.4579 26.5589C19.8313 27.0256 20.3985 27.2553 21.1668 27.2553Z" fill="white"/>
<path d="M42.958 31.3696C41.4502 31.3696 40.2296 31.147 39.2962 30.7091C38.3628 30.2711 37.7022 29.51 37.3001 28.4258C36.9052 27.3416 36.7042 25.8266 36.7042 23.8808V14.7981H34.2773V10.2316H36.7042V4.76758H42.1682V10.2388H47.4312V14.8053H42.1682V22.452C42.1682 23.5218 42.2185 24.3547 42.3118 24.9578C42.4051 25.561 42.6205 25.9846 42.9508 26.2287C43.2811 26.4728 43.7837 26.6021 44.473 26.6021C44.6669 26.6021 44.9541 26.5877 45.3346 26.559C45.7151 26.5303 46.1029 26.5016 46.4834 26.4728C46.864 26.4441 47.1799 26.4154 47.4312 26.3939L47.5963 30.7952C46.9358 30.9029 46.1531 31.025 45.2341 31.1686C44.315 31.305 43.554 31.3768 42.9508 31.3768L42.958 31.3696Z" fill="white"/>
<path d="M55.8679 31.3264C53.7283 31.3264 52.12 30.7879 51.0358 29.7037C49.9516 28.6195 49.4131 26.9825 49.4131 24.7926C49.4131 23.256 49.6859 22.057 50.2388 21.1954C50.7845 20.3338 51.603 19.7019 52.6872 19.307C53.7714 18.9121 55.0925 18.668 56.6577 18.589L61.6694 18.1367V16.9017C61.6694 15.918 61.4253 15.2216 60.9299 14.8267C60.4344 14.4318 59.7093 14.2307 58.7543 14.2307C57.9861 14.2307 57.1029 14.2594 56.1049 14.3169C55.1069 14.3743 54.116 14.4389 53.1467 14.5251C52.1702 14.6041 51.3302 14.6902 50.6193 14.7692L50.4542 10.9064C51.165 10.7412 52.0194 10.5689 53.0246 10.3894C54.0227 10.2099 55.071 10.0663 56.1695 9.9586C57.2681 9.8509 58.2804 9.79346 59.2138 9.79346C60.9658 9.79346 62.4305 10.016 63.6152 10.454C64.7927 10.892 65.6831 11.61 66.2862 12.6152C66.8893 13.6132 67.1909 14.9631 67.1909 16.6648V26.0778C67.2483 26.4655 67.4493 26.7527 67.8083 26.9609C68.1674 27.1692 68.5766 27.3128 69.0433 27.3917L68.9213 31.1756C68.2607 31.2043 67.6217 31.2187 66.9898 31.2187C66.358 31.2187 65.8267 31.1756 65.3887 31.0966C64.7568 31.0177 64.2183 30.8525 63.766 30.6012C63.3136 30.3571 62.9475 30.0914 62.6746 29.8186C62.2366 30.0124 61.6479 30.2279 60.9083 30.4792C60.1688 30.7233 59.3646 30.9315 58.503 31.0966C57.6414 31.2618 56.7726 31.3408 55.8895 31.3408L55.8679 31.3264ZM57.1819 27.2553C57.6989 27.2553 58.2517 27.1979 58.8261 27.0902C59.4005 26.9825 59.9462 26.8532 60.4488 26.7024C60.9586 26.5517 61.3607 26.4081 61.6622 26.2716V21.5472L57.4691 21.9134C56.5644 21.9995 55.911 22.2652 55.5161 22.7175C55.1212 23.1699 54.9202 23.8089 54.9202 24.6274C54.9202 25.4459 55.1069 26.0921 55.473 26.5589C55.8464 27.0256 56.4136 27.2553 57.1819 27.2553Z" fill="white"/>
<path d="M73.0928 7.15132L70.709 4.07108L78.7219 0L81.8452 4.15006L73.0856 7.15132H73.0928ZM72.8056 30.8742V10.2387H78.2696V30.8742H72.8056Z" fill="white"/>
<path d="M83.4536 30.8742V24.7927H89.1689V30.8742H83.4536Z" fill="white"/>
</svg>
