<svg width="40" height="40" viewBox="0 0 40 40" fill="none" xmlns="http://www.w3.org/2000/svg">
<path d="M10.7523 25.9997H29.2523C29.6666 25.9997 30.0023 26.3355 30.0023 26.7497C30.0023 27.1294 29.7202 27.4432 29.3541 27.4928L29.2523 27.4997H10.7523C10.3381 27.4997 10.0023 27.1639 10.0023 26.7497C10.0023 26.37 10.2845 26.0562 10.6506 26.0065L10.7523 25.9997H29.2523H10.7523ZM10.7523 19.5027H29.2523C29.6666 19.5027 30.0023 19.8385 30.0023 20.2527C30.0023 20.6324 29.7202 20.9462 29.3541 20.9959L29.2523 21.0027H10.7523C10.3381 21.0027 10.0023 20.6669 10.0023 20.2527C10.0023 19.873 10.2845 19.5592 10.6506 19.5095L10.7523 19.5027H29.2523H10.7523ZM10.7515 13.0029H29.2515C29.6657 13.0029 30.0015 13.3387 30.0015 13.7529C30.0015 14.1326 29.7193 14.4464 29.3533 14.4961L29.2515 14.5029H10.7515C10.3372 14.5029 10.0015 14.1671 10.0015 13.7529C10.0015 13.3732 10.2836 13.0594 10.6497 13.0098L10.7515 13.0029H29.2515H10.7515Z" fill="black"/>
<rect x="0.5" y="0.5" width="39" height="39" rx="19.5" stroke="#E6E6E6"/>
</svg>
