<svg width="32" height="32" viewBox="0 0 32 32" fill="none" xmlns="http://www.w3.org/2000/svg">
<g id="Mail Add / undefined / Glyph: undefined">
<path id="Vector" d="M30.6667 8.66665C30.6667 4.61655 27.3835 1.33331 23.3334 1.33331C19.2833 1.33331 16.0001 4.61655 16.0001 8.66665C16.0001 12.7167 19.2833 16 23.3334 16C27.3835 16 30.6667 12.7167 30.6667 8.66665ZM24.0009 9.33333L24.0015 12.6713C24.0015 13.0395 23.7031 13.338 23.3349 13.338C22.9667 13.338 22.6682 13.0395 22.6682 12.6713L22.6675 9.33333H19.3275C18.9597 9.33333 18.6615 9.03485 18.6615 8.66666C18.6615 8.29847 18.9597 7.99999 19.3275 7.99999H22.6674L22.6667 4.66567C22.6667 4.29749 22.9653 3.99901 23.3334 3.99901C23.7015 3.99901 24.0001 4.29749 24.0001 4.66567L24.0007 7.99999H27.3289C27.6967 7.99999 27.9949 8.29847 27.9949 8.66666C27.9949 9.03485 27.6967 9.33333 27.3289 9.33333H24.0009ZM27.3334 22.3333V16.357C28.0681 15.9741 28.741 15.489 29.3334 14.9205V22.3333C29.3334 24.644 27.5247 26.5322 25.2459 26.6598L25.0001 26.6666H7.00008C4.68937 26.6666 2.80108 24.858 2.6736 22.5792L2.66675 22.3333V9.66665C2.66675 7.35594 4.47535 5.46765 6.75419 5.34017L7.00008 5.33331H15.331C15.0673 5.96554 14.8763 6.6357 14.7686 7.33331H7.00008C5.77585 7.33331 4.77183 8.27613 4.67448 9.47527L4.66675 9.66665V10.2386L16.0001 16.2033L17.7403 15.2872C18.325 15.7817 18.9761 16.2001 19.6783 16.5272L16.4658 18.2182C16.2159 18.3497 15.9242 18.3685 15.6625 18.2746L15.5343 18.2182L4.66675 12.4986V22.3333C4.66675 23.5576 5.60956 24.5616 6.80871 24.6589L7.00008 24.6666H25.0001C26.2243 24.6666 27.2283 23.7238 27.3257 22.5246L27.3334 22.3333Z" fill="#008040"/>
</g>
</svg>
