<svg width="32" height="32" viewBox="0 0 32 32" fill="none" xmlns="http://www.w3.org/2000/svg">
<g id="Calendar Add / undefined / Glyph: undefined">
<path id="Vector" d="M23.3333 16C27.3835 16 30.6667 19.2832 30.6667 23.3333C30.6667 27.3835 27.3835 30.6667 23.3333 30.6667C19.2832 30.6667 16 27.3835 16 23.3333C16 19.2832 19.2832 16 23.3333 16ZM23.6667 4C26.0599 4 28 5.94009 28 8.33333L28.0016 16.0301C27.3837 15.6344 26.7123 15.3148 26.0005 15.0848L26 11.3333H6V23.6667C6 24.9553 7.04467 26 8.33333 26L15.0848 26.0005C15.3148 26.7123 15.6344 27.3837 16.0301 28.0016L8.33333 28C5.94009 28 4 26.0599 4 23.6667V8.33333C4 5.94009 5.94009 4 8.33333 4H23.6667ZM23.3333 18.6667L23.2135 18.6775C22.9413 18.7268 22.7268 18.9413 22.6775 19.2135L22.6667 19.3333V22.6667H19.3333L19.2135 22.6775C18.9413 22.7268 18.7268 22.9413 18.6775 23.2135L18.6667 23.3333L18.6775 23.4532C18.7268 23.7253 18.9413 23.9399 19.2135 23.9892L19.3333 24H22.6667V27.3333L22.6775 27.4532C22.7268 27.7253 22.9413 27.9399 23.2135 27.9892L23.3333 28L23.4532 27.9892C23.7253 27.9399 23.9399 27.7253 23.9892 27.4532L24 27.3333V24H27.3333L27.4532 23.9892C27.7253 23.9399 27.9399 23.7253 27.9892 23.4532L28 23.3333L27.9892 23.2135C27.9399 22.9413 27.7253 22.7268 27.4532 22.6775L27.3333 22.6667H24V19.3333L23.9892 19.2135C23.9399 18.9413 23.7253 18.7268 23.4532 18.6775L23.3333 18.6667ZM23.6667 6H8.33333C7.04467 6 6 7.04467 6 8.33333V9.33333H26V8.33333C26 7.04467 24.9553 6 23.6667 6Z" fill="#008040"/>
</g>
</svg>
