<svg width="32" height="32" viewBox="0 0 32 32" fill="none" xmlns="http://www.w3.org/2000/svg">
<g id="Lightbulb Filament / undefined / Glyph: undefined">
<path id="Vector" d="M15.0002 9.00097C15.0002 8.44869 15.4479 8.00097 16.0002 8.00097C16.5524 8.00097 17.0002 8.44869 17.0002 9.00097V11.001C17.0002 11.5533 16.5524 12.001 16.0002 12.001C15.4479 12.001 15.0002 11.5533 15.0002 11.001V9.00097ZM21.7072 10.9548C21.3167 10.5642 20.6836 10.5642 20.2931 10.9548L18.8788 12.369C18.4883 12.7595 18.4883 13.3927 18.8788 13.7832C19.2694 14.1737 19.9026 14.1737 20.2931 13.7832L21.7072 12.369C22.0978 11.9784 22.0978 11.3453 21.7072 10.9548ZM11.7073 10.9548C11.3167 10.5642 10.6836 10.5642 10.293 10.9548C9.90252 11.3453 9.90252 11.9784 10.293 12.369L11.7073 13.7832C12.0978 14.1737 12.731 14.1737 13.1215 13.7832C13.512 13.3927 13.512 12.7595 13.1215 12.369L11.7073 10.9548ZM16.0002 2.66797C21.339 2.66797 25.6668 6.99588 25.6668 12.3346C25.6668 15.1293 24.4659 17.6943 22.116 19.9905C22.0135 20.0908 21.934 20.2115 21.8826 20.3443L21.8407 20.4807L20.3326 27.0081C20.0356 28.2933 18.9382 29.2244 17.6404 29.324L17.4095 29.3328H14.5912C13.2718 29.3328 12.1174 28.4727 11.7285 27.2304L11.668 27.0073L10.1619 20.4809C10.1189 20.2944 10.0232 20.1241 9.88624 19.9904C7.64703 17.8035 6.45054 15.3729 6.34167 12.7323L6.3335 12.3346L6.33867 12.0155C6.50702 6.82449 10.7682 2.66797 16.0002 2.66797ZM18.8202 24.6653H13.1788L13.6168 26.5576C13.711 26.966 14.0478 27.2672 14.4536 27.3233L14.5912 27.3328H17.4095C17.8286 27.3328 18.1976 27.0725 18.3438 26.6899L18.3839 26.5579L18.8202 24.6653ZM16.0002 4.66797C11.8644 4.66797 8.49358 7.94265 8.33903 12.0406L8.3335 12.3346L8.34246 12.704C8.44398 14.7884 9.40979 16.7295 11.2837 18.5596C11.6358 18.9036 11.897 19.328 12.0458 19.7947L12.1107 20.0313L12.7175 22.6653H15.0002V14.3337C15.0002 13.7815 15.4479 13.3337 16.0002 13.3337C16.5524 13.3337 17.0002 13.7815 17.0002 14.3337V22.6653H19.2815L19.892 20.0304C20.0027 19.5512 20.2292 19.1079 20.55 18.7385L20.7183 18.5601C22.5911 16.73 23.5564 14.7888 23.6579 12.704L23.6668 12.3346L23.6612 12.0406C23.5067 7.94265 20.1359 4.66797 16.0002 4.66797Z" fill="#008040"/>
</g>
</svg>
