<svg width="32" height="32" viewBox="0 0 32 32" fill="none" xmlns="http://www.w3.org/2000/svg">
<g id="People Team / undefined / Glyph: undefined">
<path id="Vector" d="M19.672 13.3333C20.9607 13.3333 22.0054 14.378 22.0054 15.6667V21.9987C22.0054 25.3131 19.3184 28 16.004 28C12.6895 28 10.0026 25.3131 10.0026 21.9987V15.6667C10.0026 14.378 11.0473 13.3333 12.3359 13.3333H19.672ZM19.672 15.3333H12.3359C12.1518 15.3333 12.0026 15.4825 12.0026 15.6667V21.9987C12.0026 24.2085 13.794 26 16.004 26C18.2139 26 20.0054 24.2085 20.0054 21.9987V15.6667C20.0054 15.4825 19.8562 15.3333 19.672 15.3333ZM5.00002 13.3333L9.50839 13.3321C9.05057 13.886 8.75234 14.5767 8.68418 15.3336L5.00002 15.3333C4.81593 15.3333 4.66669 15.4825 4.66669 15.6667V19.9984C4.66669 21.8403 6.15981 23.3333 8.00167 23.3333C8.26833 23.3333 8.52767 23.302 8.77623 23.2429C8.88918 23.9148 9.09543 24.5556 9.37985 25.152C8.94105 25.2707 8.47867 25.3333 8.00167 25.3333C5.05525 25.3333 2.66669 22.9448 2.66669 19.9984V15.6667C2.66669 14.378 3.71135 13.3333 5.00002 13.3333ZM22.4996 13.3321L27 13.3333C28.2887 13.3333 29.3334 14.378 29.3334 15.6667V20C29.3334 22.9455 26.9455 25.3333 24 25.3333C23.5248 25.3333 23.064 25.2712 22.6255 25.1545C22.912 24.5569 23.1184 23.9161 23.2334 23.2441C23.479 23.3027 23.7359 23.3333 24 23.3333C25.841 23.3333 27.3334 21.8409 27.3334 20V15.6667C27.3334 15.4825 27.1842 15.3333 27 15.3333L23.3238 15.3336C23.2556 14.5767 22.9574 13.886 22.4996 13.3321ZM16 4C18.2092 4 20 5.79087 20 8C20 10.2091 18.2092 12 16 12C13.7908 12 12 10.2091 12 8C12 5.79087 13.7908 4 16 4ZM24.6667 5.33333C26.5076 5.33333 28 6.82572 28 8.66667C28 10.5076 26.5076 12 24.6667 12C22.8258 12 21.3334 10.5076 21.3334 8.66667C21.3334 6.82572 22.8258 5.33333 24.6667 5.33333ZM7.33335 5.33333C9.1743 5.33333 10.6667 6.82572 10.6667 8.66667C10.6667 10.5076 9.1743 12 7.33335 12C5.49241 12 4.00002 10.5076 4.00002 8.66667C4.00002 6.82572 5.49241 5.33333 7.33335 5.33333ZM16 6C14.8955 6 14 6.89543 14 8C14 9.10457 14.8955 10 16 10C17.1046 10 18 9.10457 18 8C18 6.89543 17.1046 6 16 6ZM24.6667 7.33333C23.9303 7.33333 23.3334 7.93029 23.3334 8.66667C23.3334 9.40304 23.9303 10 24.6667 10C25.4031 10 26 9.40304 26 8.66667C26 7.93029 25.4031 7.33333 24.6667 7.33333ZM7.33335 7.33333C6.59698 7.33333 6.00002 7.93029 6.00002 8.66667C6.00002 9.40304 6.59698 10 7.33335 10C8.06973 10 8.66669 9.40304 8.66669 8.66667C8.66669 7.93029 8.06973 7.33333 7.33335 7.33333Z" fill="#008040"/>
</g>
</svg>
