<svg width="80" height="80" viewBox="0 0 80 80" fill="none" xmlns="http://www.w3.org/2000/svg">
<g id="check-circle">
<path id="Vector" d="M52.695 28.8216L33.8735 47.6432L25.6379 39.4108C25.6299 39.4028 25.622 39.3949 25.6139 39.387C24.9565 38.7428 23.9014 38.7534 23.2573 39.4108C22.613 40.0683 22.6237 41.1234 23.2811 41.7675L32.6952 51.1783C33.0072 51.4915 33.4314 51.6672 33.8735 51.6666C34.3156 51.667 34.7396 51.4915 35.0517 51.1783L55.0517 31.1783C55.0597 31.1704 55.0676 31.1627 55.0755 31.1545C55.7196 30.4972 55.7091 29.4421 55.0517 28.798C54.3944 28.1536 53.3393 28.1644 52.695 28.8216ZM39.9998 6.66663C21.5904 6.66663 6.6665 21.5905 6.6665 40C6.6665 58.4094 21.5904 73.3333 39.9998 73.3333C58.4003 73.3117 73.3116 58.4004 73.3332 40C73.3332 21.5905 58.4093 6.66663 39.9998 6.66663ZM39.9998 70C23.4312 70 9.99984 56.5686 9.99984 40C9.99984 23.4314 23.4312 9.99996 39.9998 9.99996C56.5609 10.0181 69.9817 23.4389 69.9998 40C69.9998 56.5686 56.5684 70 39.9998 70Z" fill="#098643"/>
</g>
</svg>
