<svg width="56" height="56" viewBox="0 0 56 56" fill="none" xmlns="http://www.w3.org/2000/svg">
<rect width="56" height="56" rx="12" fill="#FAFAFA"/>
<path d="M22.754 37.2578L31.4206 17.9245C31.6466 17.4205 32.2382 17.1951 32.7422 17.421C33.2042 17.6281 33.4321 18.1426 33.2929 18.6151L33.2457 18.7426L24.579 38.076C24.3531 38.58 23.7614 38.8053 23.2575 38.5794C22.7955 38.3724 22.5676 37.8578 22.7068 37.3854L22.754 37.2578ZM14.9594 27.2932L20.6261 21.6265C21.0166 21.2359 21.6498 21.2359 22.0403 21.6265C22.3953 21.9815 22.4276 22.537 22.1371 22.9285L22.0403 23.0407L17.0807 28.0002L22.0403 32.9598C22.4308 33.3502 22.4308 33.9834 22.0403 34.374C21.6853 34.729 21.1297 34.7613 20.7382 34.4708L20.6261 34.374L14.9594 28.7073C14.6044 28.3522 14.5721 27.7968 14.8626 27.4053L14.9594 27.2932ZM33.9594 21.6265C34.3144 21.2714 34.87 21.2392 35.2614 21.5296L35.3736 21.6265L41.0402 27.2932C41.3953 27.6481 41.4276 28.2037 41.137 28.5952L41.0402 28.7073L35.3736 34.374C34.983 34.7645 34.35 34.7645 33.9594 34.374C33.6044 34.019 33.5721 33.4634 33.8626 33.072L33.9594 32.9598L38.9189 28.0002L33.9594 23.0407C33.5689 22.6501 33.5689 22.017 33.9594 21.6265Z" fill="#008040"/>
</svg>
