<svg width="24" height="24" viewBox="0 0 24 24" fill="none" xmlns="http://www.w3.org/2000/svg">
<path fill-rule="evenodd" clip-rule="evenodd" d="M11.9958 0.599976C9.16475 0.601444 6.42656 1.60414 4.27081 3.42876C2.11507 5.25339 0.682345 7.78096 0.22883 10.5595C-0.224685 13.3381 0.330574 16.1865 1.79533 18.5953C3.26009 21.0042 5.53883 22.8164 8.22408 23.7081C8.8165 23.818 9.03964 23.4508 9.03964 23.1387C9.03964 22.8265 9.02779 21.9213 9.02384 20.9317C5.70634 21.6484 5.00532 19.5318 5.00532 19.5318C4.46425 18.1573 3.68227 17.7961 3.68227 17.7961C2.60013 17.0617 3.76324 17.0755 3.76324 17.0755C4.96188 17.1599 5.59182 18.2987 5.59182 18.2987C6.65421 20.111 8.38206 19.5867 9.06136 19.2804C9.16799 18.5127 9.47802 17.9904 9.81965 17.694C7.1696 17.3955 4.38526 16.3784 4.38526 11.835C4.36884 10.6566 4.80859 9.51712 5.61353 8.65217C5.4911 8.35372 5.08233 7.14815 5.73003 5.51062C5.73003 5.51062 6.73122 5.19254 9.01003 6.72601C10.9646 6.19452 13.0269 6.19452 14.9815 6.72601C17.2584 5.19254 18.2575 5.51062 18.2575 5.51062C18.9072 7.14422 18.4985 8.3498 18.376 8.65217C19.1835 9.51726 19.6242 10.6588 19.6063 11.8389C19.6063 16.3922 16.816 17.3955 14.162 17.6881C14.5886 18.0572 14.9697 18.7778 14.9697 19.8852C14.9697 21.4717 14.9559 22.7479 14.9559 23.1387C14.9559 23.4548 15.1711 23.8239 15.7753 23.7081C18.4609 22.8163 20.7399 21.0037 22.2046 18.5945C23.6693 16.1852 24.2243 13.3364 23.7703 10.5576C23.3163 7.77877 21.8828 5.25117 19.7264 3.42686C17.5699 1.60255 14.8311 0.600513 11.9997 0.599976H11.9958Z" fill="#1A191B"/>
</svg>
