<svg width="56" height="56" viewBox="0 0 56 56" fill="none" xmlns="http://www.w3.org/2000/svg">
<rect width="56" height="56" rx="12" fill="#FAFAFA"/>
<path d="M27.0002 21.001C27.0002 20.4487 27.4479 20.001 28.0002 20.001C28.5524 20.001 29.0002 20.4487 29.0002 21.001V23.001C29.0002 23.5533 28.5524 24.001 28.0002 24.001C27.4479 24.001 27.0002 23.5533 27.0002 23.001V21.001ZM33.7072 22.9548C33.3167 22.5642 32.6836 22.5642 32.2931 22.9548L30.8788 24.369C30.4883 24.7595 30.4883 25.3927 30.8788 25.7832C31.2694 26.1737 31.9026 26.1737 32.2931 25.7832L33.7072 24.369C34.0978 23.9784 34.0978 23.3453 33.7072 22.9548ZM23.7073 22.9548C23.3167 22.5642 22.6836 22.5642 22.293 22.9548C21.9025 23.3453 21.9025 23.9784 22.293 24.369L23.7073 25.7832C24.0978 26.1737 24.731 26.1737 25.1215 25.7832C25.512 25.3927 25.512 24.7595 25.1215 24.369L23.7073 22.9548ZM28.0002 14.668C33.339 14.668 37.6668 18.9959 37.6668 24.3346C37.6668 27.1293 36.4659 29.6943 34.116 31.9905C34.0135 32.0908 33.934 32.2115 33.8826 32.3443L33.8407 32.4807L32.3326 39.0081C32.0356 40.2933 30.9382 41.2244 29.6404 41.324L29.4095 41.3328H26.5912C25.2718 41.3328 24.1174 40.4727 23.7285 39.2304L23.668 39.0073L22.1619 32.4809C22.1189 32.2944 22.0232 32.1241 21.8862 31.9904C19.647 29.8035 18.4505 27.3729 18.3417 24.7323L18.3335 24.3346L18.3387 24.0155C18.507 18.8245 22.7682 14.668 28.0002 14.668ZM30.8202 36.6653H25.1788L25.6168 38.5576C25.711 38.966 26.0478 39.2672 26.4536 39.3233L26.5912 39.3328H29.4095C29.8286 39.3328 30.1976 39.0725 30.3438 38.6899L30.3839 38.5579L30.8202 36.6653ZM28.0002 16.668C23.8644 16.668 20.4936 19.9426 20.339 24.0406L20.3335 24.3346L20.3425 24.704C20.444 26.7884 21.4098 28.7295 23.2837 30.5596C23.6358 30.9036 23.897 31.328 24.0458 31.7947L24.1107 32.0313L24.7175 34.6653H27.0002V26.3337C27.0002 25.7815 27.4479 25.3337 28.0002 25.3337C28.5524 25.3337 29.0002 25.7815 29.0002 26.3337V34.6653H31.2815L31.892 32.0304C32.0027 31.5512 32.2292 31.1079 32.55 30.7385L32.7183 30.5601C34.5911 28.73 35.5564 26.7888 35.6579 24.704L35.6668 24.3346L35.6612 24.0406C35.5067 19.9426 32.1359 16.668 28.0002 16.668Z" fill="#008040"/>
</svg>
