<svg width="63" height="40" viewBox="0 0 63 40" fill="none" xmlns="http://www.w3.org/2000/svg">
<path d="M1.352 33.9999L0 31.0647C0.673488 30.6978 1.21127 30.3762 1.62341 30.0997C2.03554 29.8233 2.34715 29.5318 2.55825 29.2353C2.76934 28.9387 2.9151 28.5869 2.99049 28.1848C3.06588 27.7827 3.10608 27.2651 3.10608 26.6318V13.167H6.96105V26.5765C6.96105 27.6722 6.88063 28.5869 6.71477 29.3257C6.55394 30.0645 6.26243 30.6978 5.8503 31.2256C5.43816 31.7533 4.86519 32.2257 4.13642 32.6479C3.40765 33.0701 2.47783 33.5225 1.34698 33.9999H1.352ZM3.10608 10.835V7.58313H6.96105V10.835H3.10608Z" fill="#6826D9"/>
<path d="M13.8961 27.9284C12.3983 27.9284 11.2725 27.5515 10.5136 26.7925C9.75464 26.0336 9.37769 24.8877 9.37769 23.3547C9.37769 22.2791 9.56867 21.4398 9.95568 20.8367C10.3377 20.2336 10.9106 19.7913 11.6696 19.5148C12.4285 19.2384 13.3533 19.0675 14.4489 19.0122L17.9571 18.6956V17.8311C17.9571 17.1425 17.7862 16.655 17.4394 16.3786C17.0926 16.1022 16.585 15.9614 15.9165 15.9614C15.3788 15.9614 14.7606 15.9815 14.0619 16.0217C13.3633 16.062 12.6697 16.1072 11.9912 16.1675C11.3077 16.2228 10.7196 16.2831 10.2221 16.3384L10.1065 13.6344C10.604 13.5188 11.2021 13.3982 11.9058 13.2725C12.6044 13.1469 13.3382 13.0463 14.1072 12.9709C14.8762 12.8956 15.5848 12.8553 16.2382 12.8553C17.4646 12.8553 18.4899 13.0112 19.3192 13.3177C20.1434 13.6243 20.7667 14.1269 21.1888 14.8306C21.611 15.5292 21.8221 16.4741 21.8221 17.6653V24.2544C21.8623 24.5258 22.0031 24.7268 22.2544 24.8726C22.5057 25.0183 22.7922 25.1189 23.1188 25.1741L23.0334 27.8229C22.571 27.843 22.1237 27.853 21.6814 27.853C21.2391 27.853 20.8672 27.8229 20.5606 27.7676C20.1183 27.7123 19.7414 27.5967 19.4247 27.4208C19.1081 27.2499 18.8517 27.0639 18.6608 26.8729C18.3542 27.0086 17.942 27.1594 17.4244 27.3353C16.9067 27.5062 16.3438 27.652 15.7406 27.7676C15.1375 27.8832 14.5294 27.9385 13.9112 27.9385L13.8961 27.9284ZM14.8158 25.0786C15.1777 25.0786 15.5647 25.0384 15.9668 24.963C16.3689 24.8877 16.7509 24.7972 17.1027 24.6916C17.4595 24.5861 17.741 24.4856 17.9521 24.3901V21.083L15.0169 21.3393C14.3836 21.3996 13.9262 21.5856 13.6498 21.9022C13.3734 22.2188 13.2326 22.6662 13.2326 23.2391C13.2326 23.8121 13.3633 24.2644 13.6197 24.5911C13.881 24.9178 14.2781 25.0786 14.8158 25.0786Z" fill="#6826D9"/>
<path d="M30.0706 27.9585C29.0151 27.9585 28.1607 27.8027 27.5073 27.4961C26.8539 27.1895 26.3916 26.6567 26.1101 25.8978C25.8337 25.1389 25.6929 24.0784 25.6929 22.7163V16.3584H23.9941V13.1618H25.6929V9.33704H29.5177V13.1669H33.2018V16.3634H29.5177V21.7161C29.5177 22.465 29.5529 23.048 29.6183 23.4702C29.6836 23.8924 29.8344 24.1889 30.0656 24.3598C30.2968 24.5307 30.6486 24.6212 31.1311 24.6212C31.2668 24.6212 31.4678 24.6111 31.7342 24.591C32.0006 24.5709 32.272 24.5508 32.5384 24.5307C32.8048 24.5106 33.0259 24.4905 33.2018 24.4754L33.3174 27.5564C32.855 27.6318 32.3072 27.7172 31.6639 27.8177C31.0205 27.9132 30.4878 27.9635 30.0656 27.9635L30.0706 27.9585Z" fill="#6826D9"/>
<path d="M39.107 27.9284C37.6093 27.9284 36.4834 27.5515 35.7245 26.7925C34.9656 26.0336 34.5886 24.8877 34.5886 23.3547C34.5886 22.2791 34.7796 21.4398 35.1666 20.8367C35.5486 20.2336 36.1216 19.7913 36.8805 19.5148C37.6394 19.2384 38.5642 19.0675 39.6599 19.0122L43.1681 18.6956V17.8311C43.1681 17.1425 42.9972 16.655 42.6504 16.3786C42.3036 16.1022 41.7959 15.9614 41.1275 15.9614C40.5897 15.9614 39.9715 15.9815 39.2729 16.0217C38.5743 16.062 37.8807 16.1072 37.2022 16.1675C36.5186 16.2228 35.9306 16.2831 35.433 16.3384L35.3174 13.6344C35.815 13.5188 36.4131 13.3982 37.1167 13.2725C37.8153 13.1469 38.5491 13.0463 39.3181 12.9709C40.0871 12.8956 40.7958 12.8553 41.4492 12.8553C42.6755 12.8553 43.7008 13.0112 44.5301 13.3177C45.3544 13.6243 45.9776 14.1269 46.3998 14.8306C46.822 15.5292 47.0331 16.4741 47.0331 17.6653V24.2544C47.0733 24.5258 47.214 24.7268 47.4653 24.8726C47.7166 25.0183 48.0031 25.1189 48.3298 25.1741L48.2443 27.8229C47.7819 27.843 47.3346 27.853 46.8923 27.853C46.45 27.853 46.0781 27.8229 45.7715 27.7676C45.3292 27.7123 44.9523 27.5967 44.6357 27.4208C44.319 27.2499 44.0627 27.0639 43.8717 26.8729C43.5651 27.0086 43.153 27.1594 42.6353 27.3353C42.1176 27.5062 41.5547 27.652 40.9516 27.7676C40.3485 27.8832 39.7403 27.9385 39.1221 27.9385L39.107 27.9284ZM40.0268 25.0786C40.3887 25.0786 40.7757 25.0384 41.1777 24.963C41.5798 24.8877 41.9618 24.7972 42.3136 24.6916C42.6705 24.5861 42.9519 24.4856 43.163 24.3901V21.083L40.2278 21.3393C39.5945 21.3996 39.1372 21.5856 38.8607 21.9022C38.5843 22.2188 38.4436 22.6662 38.4436 23.2391C38.4436 23.8121 38.5743 24.2644 38.8306 24.5911C39.0919 24.9178 39.489 25.0786 40.0268 25.0786Z" fill="#6826D9"/>
<path d="M51.1655 11.0059L49.4968 8.84976L55.1059 6L57.2922 8.90504L51.1604 11.0059H51.1655ZM50.9644 27.6119V13.1671H54.7892V27.6119H50.9644Z" fill="#6826D9"/>
<path d="M58.4177 27.6118V23.3547H62.4184V27.6118H58.4177Z" fill="#6826D9"/>
</svg>
