<svg width="24" height="20" viewBox="0 0 24 20" fill="none" xmlns="http://www.w3.org/2000/svg">
<path d="M21.057 5.18078C21.0663 5.39198 21.0663 5.59358 21.0663 5.80478C21.0755 12.208 16.3711 19.6 7.76781 19.6C5.23036 19.6 2.73921 18.8416 0.599976 17.4208C0.970406 17.4688 1.34084 17.488 1.71127 17.488C3.81346 17.488 5.86009 16.7584 7.51777 15.4048C5.51744 15.3664 3.7579 14.0128 3.14669 12.0352C3.8505 12.1792 4.57284 12.1504 5.25814 11.9488C3.08186 11.5072 1.51679 9.51999 1.50753 7.20639C1.50753 7.18719 1.50753 7.16799 1.50753 7.14879C2.15578 7.52319 2.88738 7.73439 3.62825 7.75359C1.58162 6.33278 0.942624 3.50077 2.18357 1.28317C4.56358 4.31678 8.06415 6.15038 11.824 6.35198C11.4443 4.67198 11.9629 2.90557 13.1761 1.71517C15.056 -0.118439 18.0195 -0.0224385 19.7975 1.92637C20.844 1.71517 21.8534 1.31197 22.7702 0.745564C22.4183 1.86877 21.6867 2.81917 20.7144 3.42397C21.6404 3.30877 22.548 3.04957 23.4 2.66557C22.7702 3.64477 21.9738 4.48958 21.057 5.18078Z" fill="#1A191B"/>
</svg>
