<svg width="40" height="40" viewBox="0 0 40 40" fill="none" xmlns="http://www.w3.org/2000/svg">
<rect width="40" height="40" rx="20" fill="#F3F3F3"/>
<path d="M27.5475 15.984C27.5552 16.16 27.5552 16.328 27.5552 16.504C27.563 21.84 23.6426 28 16.4732 28C14.3587 28 12.2827 27.368 10.5 26.184C10.8087 26.224 11.1174 26.24 11.4261 26.24C13.1779 26.24 14.8834 25.632 16.2648 24.504C14.5979 24.472 13.1316 23.344 12.6223 21.696C13.2088 21.816 13.8107 21.792 14.3818 21.624C12.5682 21.256 11.264 19.6 11.2563 17.672C11.2563 17.656 11.2563 17.64 11.2563 17.624C11.7965 17.936 12.4062 18.112 13.0236 18.128C11.318 16.944 10.7855 14.584 11.8197 12.736C13.803 15.264 16.7201 16.792 19.8534 16.96C19.537 15.56 19.9691 14.088 20.9801 13.096C22.5467 11.5679 25.0162 11.6479 26.498 13.272C27.37 13.096 28.2112 12.76 28.9752 12.2879C28.682 13.224 28.0723 14.016 27.262 14.52C28.0337 14.424 28.79 14.208 29.5 13.888C28.9752 14.704 28.3115 15.408 27.5475 15.984Z" fill="#008040"/>
</svg>
