<svg width="16" height="16" viewBox="0 0 16 16" fill="none" xmlns="http://www.w3.org/2000/svg">
<g id="content">
<path id="Vector" d="M8.93366 8L13.1337 3.8C13.4003 3.53333 13.4003 3.13333 13.1337 2.86667C12.867 2.6 12.467 2.6 12.2003 2.86667L8.00033 7.06667L3.80033 2.86667C3.53366 2.6 3.13366 2.6 2.86699 2.86667C2.60033 3.13333 2.60033 3.53333 2.86699 3.8L7.06699 8L2.86699 12.2C2.73366 12.3333 2.66699 12.4667 2.66699 12.6667C2.66699 13.0667 2.93366 13.3333 3.33366 13.3333C3.53366 13.3333 3.66699 13.2667 3.80033 13.1333L8.00033 8.93333L12.2003 13.1333C12.3337 13.2667 12.467 13.3333 12.667 13.3333C12.867 13.3333 13.0003 13.2667 13.1337 13.1333C13.4003 12.8667 13.4003 12.4667 13.1337 12.2L8.93366 8Z" fill="#141414"/>
</g>
</svg>
