<svg width="32" height="32" viewBox="0 0 32 32" fill="none" xmlns="http://www.w3.org/2000/svg">
<g id="Code / undefined / Glyph: undefined">
<path id="Vector" d="M10.754 25.2579L19.4206 5.92452C19.6466 5.42056 20.2382 5.19516 20.7422 5.42106C21.2042 5.62816 21.4321 6.1426 21.2929 6.61508L21.2457 6.74264L12.579 26.076C12.3531 26.58 11.7614 26.8053 11.2575 26.5795C10.7955 26.3724 10.5676 25.8579 10.7068 25.3855L10.754 25.2579ZM2.9594 15.2932L8.62606 9.62648C9.01658 9.23594 9.64976 9.23594 10.0403 9.62648C10.3953 9.98149 10.4276 10.537 10.1371 10.9285L10.0403 11.0407L5.08072 16.0003L10.0403 20.9599C10.4308 21.3503 10.4308 21.9835 10.0403 22.374C9.68525 22.7291 9.1297 22.7613 8.73822 22.4708L8.62606 22.374L2.9594 16.7073C2.60437 16.3523 2.5721 15.7968 2.86257 15.4053L2.9594 15.2932ZM21.9594 9.62648C22.3144 9.27145 22.87 9.23917 23.2614 9.52965L23.3736 9.62648L29.0402 15.2932C29.3953 15.6481 29.4276 16.2037 29.137 16.5952L29.0402 16.7073L23.3736 22.374C22.983 22.7645 22.35 22.7645 21.9594 22.374C21.6044 22.0191 21.5721 21.4635 21.8626 21.072L21.9594 20.9599L26.9189 16.0003L21.9594 11.0407C21.5689 10.6502 21.5689 10.017 21.9594 9.62648Z" fill="#008040"/>
</g>
</svg>
