<svg width="56" height="56" viewBox="0 0 56 56" fill="none" xmlns="http://www.w3.org/2000/svg">
<rect width="56" height="56" rx="12" fill="#FAFAFA"/>
<path d="M31.6718 25.3333C32.9605 25.3333 34.0052 26.378 34.0052 27.6667V33.9987C34.0052 37.3131 31.3182 40 28.0038 40C24.6893 40 22.0024 37.3131 22.0024 33.9987V27.6667C22.0024 26.378 23.0471 25.3333 24.3357 25.3333H31.6718ZM31.6718 27.3333H24.3357C24.1517 27.3333 24.0024 27.4825 24.0024 27.6667V33.9987C24.0024 36.2085 25.7938 38 28.0038 38C30.2137 38 32.0052 36.2085 32.0052 33.9987V27.6667C32.0052 27.4825 31.856 27.3333 31.6718 27.3333ZM16.9998 25.3333L21.5082 25.3321C21.0504 25.886 20.7522 26.5767 20.684 27.3336L16.9998 27.3333C16.8157 27.3333 16.6665 27.4825 16.6665 27.6667V31.9984C16.6665 33.8403 18.1596 35.3333 20.0015 35.3333C20.2681 35.3333 20.5275 35.302 20.7761 35.2429C20.889 35.9148 21.0953 36.5556 21.3797 37.152C20.9409 37.2707 20.4785 37.3333 20.0015 37.3333C17.0551 37.3333 14.6665 34.9448 14.6665 31.9984V27.6667C14.6665 26.378 15.7112 25.3333 16.9998 25.3333ZM34.4994 25.3321L38.9998 25.3333C40.2885 25.3333 41.3332 26.378 41.3332 27.6667V32C41.3332 34.9455 38.9453 37.3333 35.9998 37.3333C35.5246 37.3333 35.0638 37.2712 34.6253 37.1545C34.9118 36.5569 35.1182 35.9161 35.2332 35.2441C35.4788 35.3027 35.7357 35.3333 35.9998 35.3333C37.8408 35.3333 39.3332 33.8409 39.3332 32V27.6667C39.3332 27.4825 39.184 27.3333 38.9998 27.3333L35.3236 27.3336C35.2554 26.5767 34.9572 25.886 34.4994 25.3321ZM27.9998 16C30.209 16 31.9998 17.7909 31.9998 20C31.9998 22.2091 30.209 24 27.9998 24C25.7906 24 23.9998 22.2091 23.9998 20C23.9998 17.7909 25.7906 16 27.9998 16ZM36.6665 17.3333C38.5074 17.3333 39.9998 18.8257 39.9998 20.6667C39.9998 22.5076 38.5074 24 36.6665 24C34.8256 24 33.3332 22.5076 33.3332 20.6667C33.3332 18.8257 34.8256 17.3333 36.6665 17.3333ZM19.3332 17.3333C21.1741 17.3333 22.6665 18.8257 22.6665 20.6667C22.6665 22.5076 21.1741 24 19.3332 24C17.4922 24 15.9998 22.5076 15.9998 20.6667C15.9998 18.8257 17.4922 17.3333 19.3332 17.3333ZM27.9998 18C26.8953 18 25.9998 18.8954 25.9998 20C25.9998 21.1046 26.8953 22 27.9998 22C29.1044 22 29.9998 21.1046 29.9998 20C29.9998 18.8954 29.1044 18 27.9998 18ZM36.6665 19.3333C35.9301 19.3333 35.3332 19.9303 35.3332 20.6667C35.3332 21.403 35.9301 22 36.6665 22C37.4029 22 37.9998 21.403 37.9998 20.6667C37.9998 19.9303 37.4029 19.3333 36.6665 19.3333ZM19.3332 19.3333C18.5968 19.3333 17.9998 19.9303 17.9998 20.6667C17.9998 21.403 18.5968 22 19.3332 22C20.0695 22 20.6665 21.403 20.6665 20.6667C20.6665 19.9303 20.0695 19.3333 19.3332 19.3333Z" fill="#008040"/>
</svg>
