<svg width="40" height="40" viewBox="0 0 40 40" fill="none" xmlns="http://www.w3.org/2000/svg">
<rect width="40" height="40" rx="20" fill="#F3F3F3"/>
<g clip-path="url(#clip0_220_3216)">
<path fill-rule="evenodd" clip-rule="evenodd" d="M19.9965 10.5C17.6374 10.5012 15.3555 11.3368 13.5591 12.8573C11.7626 14.3778 10.5687 16.4842 10.1908 18.7996C9.81283 21.1151 10.2755 23.4887 11.4962 25.4961C12.7168 27.5035 14.6158 29.0137 16.8535 29.7567C17.3472 29.8484 17.5331 29.5424 17.5331 29.2822C17.5331 29.0221 17.5232 28.2678 17.5199 27.4431C14.7554 28.0403 14.1712 26.2765 14.1712 26.2765C13.7203 25.1311 13.0686 24.8301 13.0686 24.8301C12.1668 24.2181 13.1361 24.2296 13.1361 24.2296C14.135 24.2999 14.6599 25.2489 14.6599 25.2489C15.5452 26.7592 16.9851 26.3223 17.5512 26.0671C17.6401 25.4273 17.8984 24.9921 18.1831 24.745C15.9747 24.4963 13.6545 23.6487 13.6545 19.8625C13.6408 18.8805 14.0072 17.931 14.678 17.2102C14.576 16.9615 14.2353 15.9568 14.7751 14.5922C14.7751 14.5922 15.6094 14.3271 17.5084 15.605C19.1373 15.1621 20.8558 15.1621 22.4847 15.605C24.382 14.3271 25.2147 14.5922 25.2147 14.5922C25.7561 15.9535 25.4155 16.9582 25.3134 17.2102C25.9863 17.9311 26.3536 18.8823 26.3386 19.8658C26.3386 23.6602 24.0134 24.4963 21.8018 24.7401C22.1572 25.0477 22.4748 25.6482 22.4748 26.571C22.4748 27.8931 22.4633 28.9566 22.4633 29.2822C22.4633 29.5457 22.6426 29.8533 23.1462 29.7567C25.3842 29.0136 27.2833 27.5031 28.5039 25.4954C29.7245 23.4877 30.187 21.1137 29.8086 18.798C29.4303 16.4823 28.2358 14.376 26.4387 12.8557C24.6417 11.3355 22.3593 10.5004 19.9998 10.5H19.9965Z" fill="#008040"/>
<path d="M13.822 24.6877C13.8007 24.7368 13.7217 24.7515 13.6575 24.7172C13.5933 24.6828 13.5456 24.619 13.5686 24.5683C13.5917 24.5175 13.669 24.5044 13.7332 24.5388C13.7974 24.5732 13.8467 24.6386 13.822 24.6877Z" fill="#008040"/>
<path d="M14.2253 25.1343C14.1912 25.1514 14.1522 25.1562 14.115 25.1478C14.0778 25.1395 14.0446 25.1185 14.0212 25.0885C13.957 25.0198 13.9439 24.9249 13.9932 24.8824C14.0426 24.8398 14.1315 24.8595 14.1956 24.9282C14.2598 24.9969 14.2746 25.0918 14.2253 25.1343Z" fill="#008040"/>
<path d="M14.6169 25.7022C14.556 25.7447 14.4523 25.7022 14.3947 25.6171C14.3788 25.6018 14.3661 25.5835 14.3575 25.5633C14.3488 25.5431 14.3444 25.5213 14.3444 25.4993C14.3444 25.4773 14.3488 25.4555 14.3575 25.4353C14.3661 25.4151 14.3788 25.3968 14.3947 25.3815C14.4556 25.3406 14.5593 25.3815 14.6169 25.4649C14.6745 25.5484 14.6761 25.6597 14.6169 25.7022Z" fill="#008040"/>
<path d="M15.1485 26.2519C15.0942 26.3124 14.9839 26.2961 14.8934 26.2143C14.8029 26.1325 14.7815 26.0212 14.8358 25.9623C14.8901 25.9034 15.0004 25.9198 15.0942 25.9999C15.188 26.0801 15.2061 26.193 15.1485 26.2519Z" fill="#008040"/>
<path d="M15.8939 26.5726C15.8692 26.6495 15.7573 26.6839 15.6454 26.6511C15.5335 26.6184 15.4595 26.5268 15.4809 26.4482C15.5022 26.3697 15.6158 26.3337 15.7293 26.3697C15.8429 26.4057 15.9153 26.4924 15.8939 26.5726Z" fill="#008040"/>
<path d="M16.7068 26.6283C16.7068 26.7084 16.6147 26.7772 16.4962 26.7788C16.3777 26.7804 16.2806 26.715 16.2806 26.6348C16.2806 26.5546 16.3728 26.4859 16.4913 26.4843C16.6098 26.4826 16.7068 26.5465 16.7068 26.6283Z" fill="#008040"/>
<path d="M17.4638 26.5022C17.4786 26.5824 17.3963 26.6659 17.2778 26.6855C17.1593 26.7051 17.0557 26.6577 17.0409 26.5791C17.026 26.5006 17.1116 26.4155 17.2268 26.3943C17.342 26.373 17.449 26.4221 17.4638 26.5022Z" fill="#008040"/>
</g>
<defs>
<clipPath id="clip0_220_3216">
<rect width="20" height="20" fill="white" transform="translate(10 10)"/>
</clipPath>
</defs>
</svg>
