<svg width="24" height="24" viewBox="0 0 24 24" fill="none" xmlns="http://www.w3.org/2000/svg">
<path fill-rule="evenodd" clip-rule="evenodd" d="M11.9957 0.600098C9.16469 0.601567 6.4265 1.60426 4.27075 3.42888C2.11501 5.25351 0.682284 7.78108 0.228769 10.5597C-0.224746 13.3382 0.330513 16.1866 1.79527 18.5954C3.26003 21.0043 5.53877 22.8166 8.22402 23.7082C8.81643 23.8181 9.03958 23.451 9.03958 23.1388C9.03958 22.8266 9.02773 21.9214 9.02378 20.9318C5.70628 21.6485 5.00526 19.5319 5.00526 19.5319C4.46419 18.1575 3.68221 17.7962 3.68221 17.7962C2.60007 17.0618 3.76318 17.0756 3.76318 17.0756C4.96182 17.16 5.59175 18.2988 5.59175 18.2988C6.65414 20.1111 8.382 19.5869 9.0613 19.2806C9.16793 18.5128 9.47796 17.9906 9.81959 17.6941C7.16954 17.3956 4.3852 16.3785 4.3852 11.8351C4.36878 10.6568 4.80853 9.51724 5.61347 8.65229C5.49104 8.35385 5.08227 7.14827 5.72997 5.51074C5.72997 5.51074 6.73116 5.19266 9.00996 6.72613C10.9646 6.19464 13.0268 6.19464 14.9815 6.72613C17.2583 5.19266 18.2575 5.51074 18.2575 5.51074C18.9072 7.14435 18.4984 8.34992 18.376 8.65229C19.1835 9.51738 19.6241 10.6589 19.6062 11.839C19.6062 16.3923 16.816 17.3956 14.162 17.6882C14.5885 18.0573 14.9696 18.7779 14.9696 19.8853C14.9696 21.4718 14.9558 22.748 14.9558 23.1388C14.9558 23.4549 15.171 23.824 15.7753 23.7082C18.4609 22.8165 20.7398 21.0039 22.2046 18.5946C23.6693 16.1853 24.2243 13.3365 23.7702 10.5577C23.3162 7.77889 21.8828 5.25129 19.7263 3.42698C17.5698 1.60267 14.831 0.600635 11.9997 0.600098H11.9957Z" fill="white"/>
</svg>
