<svg width="237" height="64" viewBox="0 0 237 64" fill="none" xmlns="http://www.w3.org/2000/svg">
<path d="M149.333 21.3333C149.333 22.8571 149.116 24.2721 148.789 25.6871C148.463 27.102 147.809 28.2993 146.939 29.3877C146.068 30.4762 144.98 31.3469 143.565 31.8911C142.15 32.5442 140.517 32.8707 138.667 32.8707C136.707 32.8707 135.075 32.5442 133.769 31.8911C132.463 31.2381 131.374 30.4762 130.503 29.3877C129.633 28.2993 129.088 27.102 128.653 25.7959C128.218 24.3809 128.109 22.966 128.109 21.4422C128.109 19.9184 128.326 18.3945 128.762 17.0884C129.197 15.6735 129.85 14.4762 130.83 13.4966C131.809 12.517 132.898 11.6462 134.204 10.9932C135.619 10.3401 137.143 10.1224 138.993 10.1224C140.952 10.1224 142.476 10.449 143.891 10.9932C145.197 11.6462 146.286 12.4082 147.156 13.4966C148.027 14.4762 148.571 15.6735 149.007 17.0884C149.442 18.5034 149.333 19.8095 149.333 21.3333ZM143.129 21.4422C143.129 20.5714 143.02 19.8095 142.911 19.0476C142.803 18.2857 142.585 17.5238 142.258 16.9796C141.932 16.3265 141.497 15.8911 140.843 15.4558C140.299 15.1292 139.537 14.9116 138.667 14.9116C137.796 14.9116 137.034 15.1292 136.49 15.4558C135.946 15.8911 135.401 16.3265 135.075 16.9796C134.748 17.6326 134.531 18.2857 134.313 19.0476C134.204 19.8095 134.095 20.6803 134.095 21.4422C134.095 22.3129 134.204 23.0748 134.313 23.9456C134.422 24.8163 134.639 25.4694 134.966 26.1224C135.292 26.7755 135.728 27.3197 136.381 27.6462C136.925 28.0816 137.687 28.1905 138.558 28.1905C139.428 28.1905 140.19 27.9728 140.843 27.6462C141.388 27.2109 141.932 26.7755 142.258 26.1224C142.585 25.4694 142.803 24.7075 142.911 23.9456C143.02 23.0748 143.129 22.2041 143.129 21.4422Z" fill="#824F9E"/>
<path d="M158.15 32.2177H151.946V10.7755L152.49 10.6667C152.707 10.6667 152.925 10.6667 153.143 10.5578C153.361 10.5578 153.687 10.5578 154.014 10.5578C154.993 10.5578 155.864 10.7755 156.517 11.102C157.279 11.4286 157.714 12.0816 157.823 12.9524C158.367 12.2993 159.129 11.6462 160.218 10.9932C161.306 10.449 162.721 10.1224 164.571 10.1224C166.748 10.1224 168.272 10.5578 169.361 11.4286C170.34 12.2993 171.102 13.3877 171.32 14.8027C171.429 15.4558 171.537 16.2177 171.646 17.0884C171.646 17.9592 171.755 18.7211 171.755 19.483V32.3265H165.551V19.7007C165.551 19.0476 165.551 18.3945 165.442 17.8503C165.442 17.3061 165.224 16.7619 165.116 16.3265C164.898 15.8911 164.571 15.5646 164.136 15.3469C163.701 15.1292 163.048 15.0204 162.286 15.0204C161.197 15.0204 160.218 15.2381 159.347 15.6735C158.585 16.1088 158.15 16.7619 158.15 17.415V32.2177Z" fill="#824F9E"/>
<path d="M6.63946 13.8231C6.63946 14.8027 6.31292 15.5646 5.65986 16.2177C5.0068 16.8707 4.2449 17.0884 3.37415 17.0884C2.39456 17.0884 1.63265 16.7619 0.979592 16.2177C0.326531 15.6735 0 14.8027 0 13.8231C0 12.8435 0.326531 12.0816 0.979592 11.4286C1.63265 10.7755 2.39456 10.449 3.37415 10.449C4.2449 10.449 5.11565 10.7755 5.65986 11.4286C6.31292 12.0816 6.63946 12.9524 6.63946 13.8231ZM6.53061 32.5442C6.42177 32.6531 6.09524 32.653 5.65986 32.653C5.22449 32.653 4.78912 32.653 4.2449 32.653C3.04762 32.653 2.06803 32.4354 1.30612 31.8911C0.544218 31.3469 0.217687 30.3673 0.217687 28.8435V21.1156C0.217687 21.1156 0.435374 21.0068 0.870748 21.0068C1.30612 21.0068 1.7415 20.898 2.28571 20.898C2.82993 20.898 3.26531 20.898 3.70068 21.0068C4.13605 21.1156 4.57143 21.2245 5.0068 21.551C5.44218 21.7687 5.76871 22.2041 5.98639 22.6394C6.20408 23.0748 6.31292 23.7279 6.31292 24.4898V32.5442H6.53061Z" fill="#333333"/>
<path d="M125.279 32.5442C125.17 32.653 124.844 32.653 124.408 32.653C123.973 32.653 123.537 32.653 122.993 32.653C121.796 32.653 120.816 32.4353 120.054 31.8911C119.293 31.3469 118.966 30.3673 118.966 28.8435V16.7619C118.966 16.7619 119.184 16.653 119.619 16.653C120.054 16.653 120.49 16.5442 121.034 16.5442C121.469 16.5442 122.014 16.5442 122.449 16.653C122.884 16.7619 123.32 16.8707 123.755 17.1973C124.191 17.4149 124.517 17.8503 124.735 18.2857C124.952 18.7211 125.061 19.3741 125.061 20.136V32.5442H125.279Z" fill="#333333"/>
<path d="M16.3266 32.2177H10.1226V10.7755L10.6668 10.6667C10.8845 10.6667 11.1021 10.6667 11.3198 10.5578C11.5375 10.5578 11.8641 10.5578 12.1906 10.5578C13.1702 10.5578 14.0409 10.7755 14.694 11.102C15.4559 11.4286 15.8913 12.0816 16.0001 12.9524C16.5443 12.2993 17.3062 11.6462 18.3947 10.9932C19.4831 10.449 20.8981 10.1224 22.7484 10.1224C24.4899 10.1224 25.6872 10.449 26.5579 10.9932C27.4287 11.6462 27.9729 12.2993 28.4083 13.1701C29.0613 12.4082 29.9321 11.6462 31.0205 11.102C32.109 10.449 33.5239 10.1224 35.2654 10.1224C37.4423 10.1224 38.9661 10.5578 40.0545 11.5374C41.0341 12.4082 41.6872 13.4966 41.796 14.8027C41.9049 15.4558 42.0137 16.2177 42.0137 17.0884C42.0137 17.9592 42.1226 18.7211 42.1226 19.483V32.3265H35.9185V19.7007C35.9185 19.0476 35.9185 18.3945 35.9185 17.8503C35.9185 17.3061 35.8096 16.8707 35.5919 16.4354C35.3743 16 35.0477 15.7823 34.7212 15.5646C34.2858 15.3469 33.7416 15.2381 32.9797 15.2381C32.2178 15.2381 31.4559 15.4558 30.694 15.7823C29.9321 16.1088 29.4967 16.5442 29.1702 16.9796C29.279 17.8503 29.279 18.7211 29.279 19.7007V32.3265H23.0749V19.7007C23.0749 19.0476 23.0749 18.3945 23.0749 17.8503C23.0749 17.3061 22.9661 16.7619 22.7484 16.3265C22.5307 15.8911 22.2042 15.5646 21.7688 15.3469C21.3334 15.1292 20.7892 15.0204 19.9185 15.0204C18.83 15.0204 17.9593 15.2381 17.3062 15.6735C16.6532 16.1088 16.3266 16.7619 16.3266 17.415V32.2177Z" fill="#333333"/>
<path d="M51.5919 12.7347C52.0273 12.1905 52.7892 11.5374 53.8776 10.9932C54.8572 10.449 56.1633 10.1224 57.796 10.1224C58.8844 10.1224 59.9729 10.3401 60.9524 10.6667C61.932 10.9932 62.9116 11.6462 63.6735 12.517C64.4354 13.3877 65.0885 14.4762 65.5239 15.8911C65.9593 17.3061 66.1769 19.0476 66.1769 21.0068C66.1769 23.4013 65.8504 25.3605 65.3062 26.8843C64.762 28.4081 64.1089 29.6054 63.2382 30.4762C62.3674 31.3469 61.3878 32 60.2994 32.3265C59.211 32.653 58.1225 32.8707 57.1429 32.8707C56.2722 32.8707 55.5103 32.7619 54.8572 32.5442C54.4218 32.4354 53.7688 32.2177 53.3334 32C52.898 31.7823 52.5715 31.5646 52.245 31.2381C52.0273 31.0204 51.8096 30.8027 51.8096 30.6939V42.1224H45.7144V10.7755L46.2586 10.6667C46.4763 10.6667 46.6939 10.6667 46.9116 10.5578C47.1293 10.5578 47.4559 10.5578 47.7824 10.5578C48.762 10.5578 49.6327 10.7755 50.2858 11.102C51.0477 11.4286 51.4831 11.9728 51.5919 12.7347ZM59.864 21.1156C59.864 20.2449 59.7552 19.3741 59.6463 18.6122C59.5375 17.8503 59.211 17.1973 58.8844 16.5442C58.5579 16 58.0137 15.5646 57.4695 15.2381C56.9252 14.9116 56.1633 14.8027 55.2926 14.8027C53.9865 14.8027 53.1157 15.0204 52.6803 15.5646C52.1361 16 51.9184 16.5442 51.9184 17.1973V26.7755C52.1361 26.9932 52.5715 27.3197 53.2246 27.6462C53.8776 27.9728 54.5307 28.1905 55.4014 28.1905C56.9252 28.1905 58.1225 27.5374 58.7756 26.3401C59.5375 25.034 59.864 23.2925 59.864 21.1156Z" fill="#333333"/>
<path d="M82.3945 10.6667C82.3945 10.6667 82.721 10.6667 83.1564 10.5578C83.5918 10.5578 84.0272 10.449 84.4625 10.449C85.0068 10.449 85.4421 10.5578 85.9863 10.6667C86.5306 10.7755 86.9659 10.9932 87.2925 11.2109C87.619 11.5374 87.9455 11.8639 88.2721 12.2993C88.4897 12.7347 88.5986 13.3877 88.5986 14.0408V32H84.4625C83.7006 32 83.2653 31.7823 83.0476 31.3469C82.8299 31.2381 82.721 30.585 82.721 29.8231C82.1768 30.4762 81.4149 31.1292 80.3265 31.7823C79.238 32.3265 77.8231 32.653 75.9727 32.653C73.7959 32.653 72.2721 32.2177 71.1836 31.3469C70.204 30.4762 69.4421 29.3877 69.2244 27.9728C69.1156 27.3197 69.0068 26.5578 68.8979 25.6871C68.8979 24.8163 68.7891 24.0544 68.7891 23.2925V10.6667C69.1156 10.6667 69.3333 10.6667 69.4421 10.6667C69.6598 10.6667 69.8775 10.6667 70.0952 10.5578C70.3129 10.5578 70.5306 10.5578 70.7482 10.5578C71.9455 10.5578 72.9251 10.7755 73.7959 11.3197C74.5578 11.8639 74.9931 12.7347 74.9931 14.0408V22.966C74.9931 23.619 74.9931 24.2721 75.102 24.8163C75.102 25.3605 75.3197 25.9048 75.4285 26.2313C75.6462 26.6667 75.9727 26.9932 76.4081 27.2109C76.8435 27.4286 77.4965 27.5374 78.2585 27.5374C79.3469 27.5374 80.3265 27.3197 81.1972 26.8843C81.9591 26.449 82.3945 25.7959 82.3945 25.1429V10.6667Z" fill="#333333"/>
<path d="M98.2858 32.5442C98.1769 32.6531 97.8504 32.6531 97.415 32.6531C96.9796 32.6531 96.5442 32.6531 96 32.6531C95.4558 32.6531 95.0204 32.6531 94.4762 32.5442C94.0409 32.4354 93.6055 32.2177 93.2789 32C92.9524 31.6735 92.6259 31.3469 92.4082 30.8027C92.1905 30.3673 92.0817 29.7143 92.0817 28.9524V0.217687C92.0817 0.217687 92.2994 0.108844 92.7347 0.108844C93.1701 0.108844 93.6055 0 94.1497 0C94.5851 0 95.1293 1.5408e-07 95.5647 0.108844C96 0.217687 96.4354 0.326531 96.8708 0.653061C97.3062 0.870748 97.6327 1.30612 97.8504 1.7415C98.0681 2.17687 98.1769 2.82993 98.1769 3.59184V32.5442H98.2858Z" fill="#333333"/>
<path d="M116.789 13.2789C116.789 13.7143 116.68 14.2585 116.354 14.9116C116.027 15.5646 115.81 16.1089 115.374 16.6531C115.048 16.4354 114.721 16.1089 114.286 15.8912C113.85 15.6735 113.306 15.347 112.762 15.1293C112.218 14.9116 111.674 14.6939 111.02 14.585C110.367 14.4762 109.823 14.3674 109.279 14.3674C108.952 14.3674 108.626 14.3674 108.191 14.4762C107.864 14.4762 107.537 14.585 107.211 14.8027C106.884 14.9116 106.667 15.1293 106.449 15.347C106.231 15.5646 106.123 15.8912 106.123 16.3265C106.123 17.3061 107.211 18.068 109.388 18.6123C110.259 18.8299 111.238 19.0476 112.109 19.2653C112.98 19.5918 113.85 19.9184 114.503 20.4626C115.265 21.0068 115.81 21.6599 116.245 22.4218C116.68 23.1837 116.898 24.1633 116.898 25.3606C116.898 26.5578 116.68 27.6463 116.245 28.6259C115.81 29.6055 115.157 30.3674 114.286 31.0204C113.415 31.6735 112.544 32.1089 111.347 32.4354C110.259 32.7619 109.061 32.9796 107.755 32.9796C106.34 32.9796 105.252 32.8708 104.381 32.6531C103.51 32.4354 102.748 32.2177 102.095 32C101.66 31.7823 101.225 31.5646 100.68 31.2381C100.136 30.9116 99.9185 30.3674 99.9185 29.8231C99.9185 29.2789 100.027 28.7347 100.354 28.1905C100.68 27.6463 101.007 27.102 101.442 26.449C101.769 26.6667 102.095 26.9932 102.422 27.2109C102.857 27.4286 103.293 27.7551 103.837 27.9728C104.381 28.1905 104.925 28.4082 105.578 28.517C106.231 28.6259 106.776 28.7347 107.429 28.7347C107.864 28.7347 108.191 28.7347 108.626 28.6259C109.061 28.517 109.388 28.4082 109.714 28.2993C110.041 28.1905 110.259 27.864 110.476 27.5374C110.694 27.2109 110.803 26.8844 110.803 26.3401C110.803 25.4694 110.476 24.8163 109.823 24.4898C109.17 24.1633 108.082 23.8367 106.776 23.5102C105.905 23.2925 105.034 23.0748 104.272 22.7483C103.401 22.4218 102.748 22.0952 102.095 21.551C101.442 21.0068 100.898 20.4626 100.572 19.7007C100.245 18.9388 100.027 18.068 100.027 16.9796C100.027 15.8912 100.245 14.9116 100.789 14.1497C101.225 13.2789 101.878 12.6259 102.748 12.0816C103.51 11.5374 104.49 11.1021 105.578 10.7755C106.667 10.449 107.755 10.3401 108.844 10.3401C110.041 10.3401 111.129 10.449 112.109 10.6667C113.089 10.8844 113.85 11.1021 114.612 11.4286C116.027 11.6463 116.789 12.4082 116.789 13.2789Z" fill="#333333"/>
<path d="M192.871 26.9932C192.871 29.3877 193.197 31.1292 193.959 32.2177C193.415 32.4354 192.871 32.5442 192.435 32.653C192 32.7619 191.456 32.7619 190.912 32.7619C189.823 32.7619 188.952 32.5442 188.408 32.1088C187.864 31.6734 187.537 31.1292 187.32 30.2585C186.667 30.9115 185.796 31.5646 184.708 32C183.619 32.4354 182.313 32.7619 180.68 32.7619C179.81 32.7619 179.048 32.653 178.177 32.4354C177.306 32.2177 176.653 31.8911 176 31.3469C175.347 30.8027 174.803 30.1496 174.367 29.2789C173.932 28.4081 173.714 27.3197 173.714 26.1224C173.714 24.5986 174.041 23.2925 174.803 22.3129C175.565 21.3333 176.435 20.5714 177.633 20.0272C178.721 19.483 179.918 19.0476 181.225 18.8299C182.531 18.6122 183.728 18.5034 184.816 18.3945C185.143 18.3945 185.578 18.3945 185.905 18.3945C186.231 18.3945 186.558 18.3945 186.884 18.3945V17.5238C186.884 16.3265 186.558 15.5646 185.905 15.0204C185.252 14.585 184.272 14.2585 182.857 14.2585C181.551 14.2585 180.354 14.4762 179.374 14.9115C178.395 15.3469 177.415 15.7823 176.435 16.3265C176 15.7823 175.674 15.2381 175.456 14.585C175.238 13.932 175.02 13.4966 175.02 13.17C175.02 12.7347 175.238 12.4081 175.674 11.9728C176.109 11.5374 176.762 11.2109 177.633 10.8843C178.503 10.5578 179.374 10.3401 180.463 10.1224C181.551 9.90474 182.64 9.7959 183.837 9.7959C185.469 9.7959 186.884 10.0136 187.973 10.3401C189.061 10.6666 190.041 11.2109 190.694 11.8639C191.456 12.517 191.891 13.3877 192.218 14.4762C192.544 15.5646 192.653 16.7619 192.653 18.1768V26.9932H192.871ZM187.102 21.6598C186.884 21.6598 186.667 21.6598 186.449 21.6598C186.231 21.6598 186.014 21.6598 185.796 21.6598C185.034 21.7687 184.272 21.7687 183.51 21.9864C182.748 22.0952 182.095 22.3129 181.551 22.6394C181.007 22.966 180.463 23.2925 180.136 23.8367C179.81 24.2721 179.592 24.9251 179.592 25.6871C179.592 26.5578 179.81 27.2109 180.354 27.8639C180.789 28.4081 181.66 28.7347 182.857 28.7347C183.401 28.7347 183.946 28.6258 184.49 28.517C185.034 28.4081 185.469 28.1905 185.905 27.9728C186.34 27.7551 186.558 27.4285 186.884 27.2109C187.102 26.8843 187.211 26.6666 187.211 26.449V21.6598H187.102Z" fill="#333333"/>
<path d="M202.122 12.8435C202.34 12.517 202.558 12.2993 202.884 11.9728C203.211 11.6462 203.537 11.3197 203.973 11.102C204.408 10.7755 204.844 10.5578 205.388 10.449C205.932 10.2313 206.476 10.1224 207.129 10.1224C207.456 10.1224 207.891 10.1224 208.326 10.2313C208.762 10.3401 209.088 10.449 209.415 10.5578C209.741 10.7755 210.068 10.9932 210.286 11.2109C210.503 11.5374 210.612 11.8639 210.612 12.2993C210.612 12.6258 210.612 12.9524 210.503 13.3877C210.395 13.8231 210.286 14.1496 210.177 14.585C210.068 15.0204 209.85 15.3469 209.741 15.7823C209.524 16.1088 209.415 16.5442 209.197 16.7619C208.653 16.3265 208.218 16 207.673 15.7823C207.129 15.5646 206.585 15.4558 205.823 15.4558C204.844 15.4558 204.082 15.7823 203.429 16.3265C202.775 16.8707 202.449 17.5238 202.449 18.2857V32.3265H196.245V10.7755L196.789 10.6667C197.007 10.6667 197.224 10.6667 197.442 10.5578C197.66 10.5578 197.986 10.5578 198.313 10.5578C199.292 10.5578 200.163 10.7755 200.816 11.102C201.578 11.5374 202.014 12.0816 202.122 12.8435Z" fill="#333333"/>
<path d="M125.388 6.53064C125.388 7.51024 125.061 8.27214 124.408 8.9252C123.755 9.57826 122.993 9.79595 122.122 9.79595C121.143 9.79595 120.381 9.46942 119.728 8.9252C119.075 8.27214 118.748 7.51024 118.748 6.53064C118.748 5.55105 119.075 4.78915 119.728 4.13609C120.381 3.48302 121.143 3.15649 122.122 3.15649C122.993 3.15649 123.864 3.48302 124.408 4.13609C125.061 4.78915 125.388 5.55105 125.388 6.53064Z" fill="#824F9E"/>
<path d="M99.0476 42.0136C99.5918 42.0136 100.136 42.1225 100.463 42.2313C100.898 42.3401 101.116 42.5578 101.442 42.7755C101.66 42.9932 101.878 43.3197 101.986 43.6463C102.095 43.9728 102.095 44.4082 102.095 44.8435V48.9796C101.769 49.0884 101.442 49.0884 100.898 49.1973C100.354 49.3061 99.8095 49.3061 99.0476 49.3061C98.6122 49.3061 98.1769 49.3061 97.8503 49.1973C97.5238 49.0884 97.1973 48.9796 96.8708 48.7619C96.5442 48.5442 96.4354 48.3265 96.2177 48.1088C96.1088 47.7823 96 47.4558 96 47.0204C96 46.585 96.1088 46.2585 96.2177 46.0408C96.3265 45.7143 96.5442 45.4966 96.8708 45.3878C97.1973 45.1701 97.415 45.0612 97.8503 45.0612C98.1769 44.9524 98.6122 44.9524 98.9388 44.9524C99.1565 44.9524 99.3742 44.9524 99.5918 44.9524C99.8095 44.9524 99.9184 44.9524 100.027 45.0612V44.8435C100.027 44.517 99.9184 44.1905 99.7007 44.0816C99.483 43.8639 99.1565 43.7551 98.6122 43.7551C98.2857 43.7551 97.9592 43.7551 97.6327 43.864C97.3061 43.864 96.9796 43.9728 96.7619 44.0816L96.5442 42.449C96.6531 42.449 96.7619 42.3401 96.9796 42.3401C97.1973 42.3401 97.3061 42.2313 97.5238 42.2313C97.7415 42.2313 97.9592 42.1225 98.1769 42.1225C98.6122 42.0136 98.8299 42.0136 99.0476 42.0136ZM99.2653 47.7823C99.483 47.7823 99.5918 47.7823 99.8095 47.7823C100.027 47.7823 100.136 47.7823 100.245 47.7823V46.2585C100.136 46.2585 100.027 46.2585 99.9184 46.2585C99.8095 46.2585 99.5918 46.2585 99.483 46.2585C99.2653 46.2585 99.1565 46.2585 98.9388 46.2585C98.8299 46.2585 98.6122 46.3674 98.5034 46.3674C98.3946 46.4762 98.2857 46.4762 98.1769 46.585C98.068 46.6939 98.068 46.8027 98.068 47.0204C98.068 47.3469 98.1769 47.5646 98.3946 47.6735C98.6122 47.6735 98.8299 47.7823 99.2653 47.7823Z" fill="#333333"/>
<path d="M112.98 48.3265C112.98 49.415 112.653 50.2857 112.109 50.8299C111.565 51.3741 110.694 51.7007 109.388 51.7007C108.952 51.7007 108.517 51.7007 108.082 51.5918C107.646 51.483 107.32 51.3741 106.884 51.2653L107.211 49.6326C107.537 49.7415 107.864 49.8503 108.19 49.9592C108.517 50.068 108.952 50.068 109.388 50.068C109.932 50.068 110.367 49.9592 110.585 49.7415C110.803 49.5238 110.912 49.1973 110.912 48.7619V48.5442C110.694 48.653 110.476 48.7619 110.258 48.7619C110.041 48.7619 109.823 48.8707 109.497 48.8707C108.517 48.8707 107.755 48.5442 107.32 48C106.993 47.2381 106.667 46.4762 106.667 45.4966C106.667 44.9524 106.775 44.517 106.884 44.0816C106.993 43.6462 107.32 43.3197 107.537 42.9932C107.864 42.6667 108.19 42.449 108.626 42.3401C109.061 42.2313 109.605 42.1224 110.15 42.1224C110.367 42.1224 110.585 42.1224 110.912 42.1224C111.238 42.1224 111.456 42.1224 111.673 42.2313C111.891 42.2313 112.109 42.3401 112.326 42.3401C112.544 42.3401 112.762 42.449 112.98 42.449V48.3265ZM108.735 45.4966C108.735 46.585 109.17 47.1292 110.041 47.1292C110.258 47.1292 110.476 47.1292 110.585 47.0204C110.803 47.0204 110.912 46.9116 111.02 46.8027V43.6462C110.912 43.6462 110.803 43.6462 110.694 43.6462C110.585 43.6462 110.367 43.6462 110.258 43.6462C109.714 43.6462 109.388 43.8639 109.061 44.1905C108.843 44.517 108.735 44.9524 108.735 45.4966Z" fill="#333333"/>
<path d="M114.503 45.7143C114.503 45.0612 114.612 44.517 114.83 44.0816C115.048 43.6463 115.265 43.2109 115.592 42.8844C115.918 42.5578 116.245 42.3401 116.68 42.2313C117.116 42.1225 117.442 42.0136 117.878 42.0136C118.857 42.0136 119.619 42.3401 120.163 42.8844C120.708 43.5374 121.034 44.4082 121.034 45.4966C121.034 45.6054 121.034 45.7143 121.034 45.8231C121.034 45.932 121.034 46.0408 121.034 46.1497H116.571C116.571 46.585 116.789 46.9116 117.116 47.1293C117.442 47.3469 117.878 47.4558 118.422 47.4558C118.748 47.4558 119.184 47.4558 119.51 47.3469C119.837 47.2381 120.163 47.2381 120.381 47.1293L120.599 48.7619C120.49 48.7619 120.381 48.8708 120.163 48.8708C119.946 48.8708 119.837 48.9796 119.619 48.9796C119.401 48.9796 119.184 49.0884 118.966 49.0884C118.748 49.0884 118.422 49.0884 118.204 49.0884C117.551 49.0884 117.007 48.9796 116.571 48.7619C116.136 48.5442 115.701 48.3265 115.374 48C115.048 47.6735 114.83 47.3469 114.721 46.9116C114.612 46.6939 114.503 46.2585 114.503 45.7143ZM119.075 44.9524C119.075 44.7347 119.075 44.6259 118.966 44.517C118.966 44.4082 118.857 44.1905 118.748 44.0816C118.639 43.9728 118.531 43.8639 118.313 43.7551C118.204 43.6463 117.986 43.6463 117.769 43.6463C117.551 43.6463 117.333 43.6463 117.225 43.7551C117.116 43.8639 116.898 43.9728 116.789 44.0816C116.68 44.1905 116.571 44.2993 116.571 44.517C116.463 44.6259 116.463 44.8435 116.463 45.0612H119.075V44.9524Z" fill="#333333"/>
<path d="M122.558 42.449C122.884 42.3401 123.32 42.2313 123.864 42.2313C124.408 42.1224 124.952 42.1224 125.497 42.1224C126.041 42.1224 126.585 42.2313 127.02 42.3401C127.456 42.449 127.674 42.6667 128 42.9932C128.218 43.3197 128.435 43.6462 128.435 43.9728C128.544 44.4082 128.544 44.8435 128.544 45.2789V49.1973H126.585V45.4966C126.585 44.8435 126.476 44.4082 126.367 44.1905C126.15 43.9728 125.932 43.7551 125.388 43.7551C125.279 43.7551 125.061 43.7551 124.952 43.7551C124.844 43.7551 124.626 43.7551 124.517 43.7551V49.0884H122.558V42.449Z" fill="#333333"/>
<path d="M130.286 40.4898L132.245 40.1633V42.2313H134.639V43.864H132.245V46.2585C132.245 46.6939 132.354 47.0204 132.463 47.2381C132.571 47.4558 132.898 47.5646 133.333 47.5646C133.551 47.5646 133.769 47.5646 133.986 47.4558C134.204 47.4558 134.422 47.3469 134.639 47.2381L134.966 48.7619C134.748 48.8708 134.422 48.9796 134.204 48.9796C133.877 49.0884 133.551 49.0884 133.116 49.0884C132.571 49.0884 132.136 48.9796 131.809 48.8708C131.483 48.7619 131.156 48.5442 130.939 48.2177C130.721 48 130.612 47.6735 130.503 47.2381C130.394 46.9116 130.394 46.4762 130.394 46.0408V40.4898H130.286Z" fill="#333333"/>
<path d="M135.51 45.7143C135.51 45.0612 135.619 44.517 135.837 44.0816C136.054 43.6463 136.272 43.2109 136.599 42.8844C136.925 42.5578 137.252 42.3401 137.687 42.2313C138.122 42.1225 138.449 42.0136 138.884 42.0136C139.864 42.0136 140.626 42.3401 141.17 42.8844C141.714 43.5374 142.041 44.4082 142.041 45.4966C142.041 45.6054 142.041 45.7143 142.041 45.8231C142.041 45.932 142.041 46.0408 142.041 46.1497H137.578C137.578 46.585 137.796 46.9116 138.122 47.1293C138.449 47.3469 138.884 47.4558 139.429 47.4558C139.755 47.4558 140.19 47.4558 140.517 47.3469C140.843 47.2381 141.17 47.2381 141.388 47.1293L141.605 48.7619C141.497 48.7619 141.388 48.8708 141.17 48.8708C140.952 48.8708 140.843 48.9796 140.626 48.9796C140.408 48.9796 140.19 49.0884 139.973 49.0884C139.755 49.0884 139.428 49.0884 139.211 49.0884C138.558 49.0884 138.014 48.9796 137.578 48.7619C137.143 48.5442 136.707 48.3265 136.381 48C136.054 47.6735 135.837 47.3469 135.728 46.9116C135.619 46.6939 135.51 46.2585 135.51 45.7143ZM140.19 44.9524C140.19 44.7347 140.19 44.6259 140.082 44.517C140.082 44.4082 139.973 44.1905 139.864 44.0816C139.755 43.9728 139.646 43.8639 139.429 43.7551C139.32 43.6463 139.102 43.6463 138.884 43.6463C138.667 43.6463 138.449 43.6463 138.34 43.7551C138.231 43.8639 138.014 43.9728 137.905 44.0816C137.796 44.1905 137.687 44.2993 137.687 44.517C137.578 44.6259 137.578 44.8435 137.578 45.0612H140.19V44.9524Z" fill="#333333"/>
<path d="M148.68 47.7823C149.007 47.7823 149.333 47.7823 149.442 47.6735C149.551 47.5646 149.66 47.4558 149.66 47.2381C149.66 47.1293 149.551 46.9116 149.333 46.8027C149.116 46.6939 148.898 46.585 148.463 46.3674C148.136 46.2585 147.918 46.1497 147.592 46.0408C147.374 45.932 147.156 45.8231 146.939 45.6054C146.721 45.3878 146.612 45.2789 146.503 44.9524C146.395 44.7347 146.395 44.4082 146.395 44.0816C146.395 43.4286 146.612 42.8844 147.156 42.5578C147.592 42.2313 148.354 42.0136 149.116 42.0136C149.551 42.0136 149.986 42.0136 150.313 42.1225C150.748 42.2313 150.966 42.2313 151.184 42.3401L150.857 43.864C150.639 43.7551 150.422 43.7551 150.095 43.6463C149.878 43.5374 149.551 43.5374 149.225 43.5374C148.571 43.5374 148.354 43.7551 148.354 44.0816C148.354 44.1905 148.354 44.1905 148.354 44.2993C148.354 44.4082 148.463 44.4082 148.463 44.517C148.571 44.6259 148.68 44.6259 148.789 44.7347C148.898 44.8435 149.116 44.8435 149.333 44.9524C149.769 45.0612 150.095 45.2789 150.422 45.3878C150.748 45.4966 150.966 45.7143 151.075 45.932C151.184 46.1497 151.401 46.2585 151.401 46.4762C151.401 46.6939 151.51 46.9116 151.51 47.2381C151.51 47.8912 151.293 48.4354 150.748 48.7619C150.204 49.0884 149.551 49.3061 148.571 49.3061C147.918 49.3061 147.483 49.3061 147.048 49.1973C146.612 49.0884 146.395 48.9796 146.177 48.9796L146.503 47.3469C146.83 47.4558 147.156 47.5646 147.483 47.6735C148.027 47.6735 148.354 47.7823 148.68 47.7823Z" fill="#333333"/>
<path d="M152.816 45.7143C152.816 45.0612 152.925 44.517 153.143 44.0816C153.361 43.6463 153.578 43.2109 153.905 42.8844C154.231 42.5578 154.558 42.3401 154.993 42.2313C155.429 42.1225 155.755 42.0136 156.19 42.0136C157.17 42.0136 157.932 42.3401 158.476 42.8844C159.02 43.5374 159.347 44.4082 159.347 45.4966C159.347 45.6054 159.347 45.7143 159.347 45.8231C159.347 45.932 159.347 46.0408 159.347 46.1497H154.884C154.884 46.585 155.102 46.9116 155.429 47.1293C155.755 47.3469 156.19 47.4558 156.735 47.4558C157.061 47.4558 157.497 47.4558 157.823 47.3469C158.15 47.2381 158.476 47.2381 158.694 47.1293L158.912 48.7619C158.803 48.7619 158.694 48.8708 158.476 48.8708C158.258 48.8708 158.15 48.9796 157.932 48.9796C157.714 48.9796 157.497 49.0884 157.279 49.0884C157.061 49.0884 156.735 49.0884 156.517 49.0884C155.864 49.0884 155.32 48.9796 154.884 48.7619C154.449 48.5442 154.014 48.3265 153.687 48C153.361 47.6735 153.143 47.3469 153.034 46.9116C152.925 46.6939 152.816 46.2585 152.816 45.7143ZM157.388 44.9524C157.388 44.7347 157.388 44.6259 157.279 44.517C157.17 44.4082 157.17 44.1905 157.061 44.0816C156.952 43.9728 156.843 43.8639 156.626 43.7551C156.517 43.6463 156.299 43.6463 156.082 43.6463C155.864 43.6463 155.646 43.6463 155.537 43.7551C155.429 43.8639 155.211 43.9728 155.102 44.0816C154.993 44.1905 154.884 44.2993 154.884 44.517C154.775 44.6259 154.775 44.8435 154.775 45.0612H157.388V44.9524Z" fill="#333333"/>
<path d="M163.701 45.7143C163.701 45.1701 163.809 44.7347 163.918 44.2993C164.027 43.8639 164.354 43.4286 164.571 43.102C164.898 42.7755 165.224 42.5578 165.66 42.3401C166.095 42.1225 166.639 42.0136 167.184 42.0136C167.51 42.0136 167.837 42.0136 168.163 42.1225C168.49 42.2313 168.816 42.2313 169.034 42.449L168.707 43.9728C168.49 43.8639 168.272 43.8639 168.054 43.7551C167.837 43.7551 167.619 43.6463 167.292 43.6463C166.748 43.6463 166.313 43.864 165.986 44.1905C165.66 44.517 165.551 45.0612 165.551 45.6054C165.551 46.2585 165.66 46.6939 165.986 47.0204C166.204 47.3469 166.748 47.5646 167.401 47.5646C167.619 47.5646 167.945 47.5646 168.163 47.4558C168.49 47.4558 168.707 47.3469 168.925 47.2381L169.252 48.8708C169.034 48.9796 168.707 49.0884 168.381 49.0884C168.054 49.0884 167.619 49.1973 167.292 49.1973C166.639 49.1973 166.095 49.0884 165.66 48.8708C165.224 48.6531 164.789 48.4354 164.571 48.1088C164.245 47.7823 164.027 47.3469 163.918 46.9116C163.701 46.6939 163.701 46.1497 163.701 45.7143Z" fill="#333333"/>
<path d="M176.762 45.7143C176.762 46.2585 176.653 46.8027 176.544 47.2381C176.435 47.6735 176.109 48.1088 175.891 48.4354C175.565 48.7619 175.238 48.9796 174.803 49.1973C174.367 49.415 173.932 49.415 173.388 49.415C172.843 49.415 172.408 49.3061 171.973 49.1973C171.537 48.9796 171.211 48.7619 170.884 48.4354C170.558 48.1088 170.34 47.7823 170.231 47.2381C170.014 46.8027 170.014 46.2585 170.014 45.7143C170.014 45.1701 170.122 44.6259 170.231 44.1905C170.449 43.7551 170.667 43.3197 170.993 42.9932C171.32 42.6667 171.646 42.449 172.082 42.2313C172.517 42.0136 172.952 42.0136 173.497 42.0136C174.041 42.0136 174.476 42.1225 174.912 42.2313C175.347 42.449 175.673 42.6667 176 42.9932C176.326 43.3197 176.544 43.6463 176.653 44.1905C176.653 44.6259 176.762 45.1701 176.762 45.7143ZM174.694 45.7143C174.694 45.0612 174.585 44.6259 174.367 44.2993C174.15 43.9728 173.823 43.7551 173.388 43.7551C172.952 43.7551 172.626 43.9728 172.299 44.2993C172.082 44.6259 171.973 45.1701 171.973 45.7143C171.973 46.3673 172.082 46.8027 172.299 47.1293C172.517 47.4558 172.843 47.6735 173.388 47.6735C173.823 47.6735 174.15 47.4558 174.367 47.1293C174.585 46.8027 174.694 46.2585 174.694 45.7143Z" fill="#333333"/>
<path d="M178.286 42.449C178.612 42.3401 179.048 42.2313 179.592 42.2313C180.136 42.1224 180.68 42.1224 181.224 42.1224C181.769 42.1224 182.313 42.2313 182.748 42.3401C183.184 42.449 183.401 42.6667 183.728 42.9932C183.946 43.3197 184.163 43.6462 184.163 43.9728C184.272 44.4082 184.272 44.8435 184.272 45.2789V49.1973H182.313V45.4966C182.313 44.8435 182.204 44.4082 182.095 44.1905C181.877 43.9728 181.66 43.7551 181.116 43.7551C181.007 43.7551 180.789 43.7551 180.68 43.7551C180.571 43.7551 180.354 43.7551 180.245 43.7551V49.0884H178.286V42.449Z" fill="#333333"/>
<path d="M185.687 45.7143C185.687 45.0612 185.796 44.517 186.014 44.0816C186.231 43.6463 186.449 43.2109 186.776 42.8844C187.102 42.5578 187.429 42.3401 187.864 42.2313C188.299 42.1225 188.626 42.0136 189.061 42.0136C190.041 42.0136 190.803 42.3401 191.347 42.8844C191.891 43.5374 192.218 44.4082 192.218 45.4966C192.218 45.6054 192.218 45.7143 192.218 45.8231C192.218 45.932 192.218 46.0408 192.218 46.1497H187.755C187.755 46.585 187.973 46.9116 188.299 47.1293C188.626 47.3469 189.061 47.4558 189.605 47.4558C189.932 47.4558 190.367 47.4558 190.694 47.3469C191.02 47.2381 191.347 47.2381 191.565 47.1293L191.782 48.7619C191.674 48.7619 191.565 48.8708 191.347 48.8708C191.129 48.8708 191.02 48.9796 190.803 48.9796C190.585 48.9796 190.367 49.0884 190.15 49.0884C189.932 49.0884 189.605 49.0884 189.388 49.0884C188.735 49.0884 188.191 48.9796 187.755 48.7619C187.32 48.5442 186.884 48.3265 186.558 48C186.231 47.6735 186.014 47.3469 185.905 46.9116C185.796 46.6939 185.687 46.2585 185.687 45.7143ZM190.259 44.9524C190.259 44.7347 190.259 44.6259 190.15 44.517C190.041 44.4082 190.041 44.1905 189.932 44.0816C189.823 43.9728 189.714 43.8639 189.497 43.7551C189.388 43.6463 189.17 43.6463 188.952 43.6463C188.735 43.6463 188.517 43.6463 188.408 43.7551C188.299 43.8639 188.082 43.9728 187.973 44.0816C187.864 44.1905 187.755 44.2993 187.755 44.517C187.646 44.6259 187.646 44.8435 187.646 45.0612H190.259V44.9524Z" fill="#333333"/>
<path d="M193.415 45.7143C193.415 45.1701 193.524 44.7347 193.633 44.2993C193.741 43.8639 194.068 43.4286 194.286 43.102C194.612 42.7755 194.939 42.5578 195.374 42.3401C195.809 42.1225 196.354 42.0136 196.898 42.0136C197.224 42.0136 197.551 42.0136 197.878 42.1225C198.204 42.2313 198.531 42.2313 198.748 42.449L198.313 43.9728C198.095 43.8639 197.878 43.8639 197.66 43.7551C197.442 43.7551 197.224 43.6463 196.898 43.6463C196.354 43.6463 195.918 43.864 195.592 44.1905C195.265 44.517 195.156 45.0612 195.156 45.6054C195.156 46.2585 195.265 46.6939 195.592 47.0204C195.809 47.3469 196.354 47.5646 197.007 47.5646C197.224 47.5646 197.551 47.5646 197.769 47.4558C198.095 47.4558 198.313 47.3469 198.531 47.2381L198.857 48.8708C198.639 48.9796 198.313 49.0884 197.986 49.0884C197.66 49.0884 197.224 49.1973 196.898 49.1973C196.245 49.1973 195.701 49.0884 195.265 48.8708C194.83 48.6531 194.395 48.4354 194.177 48.1088C193.85 47.7823 193.633 47.3469 193.524 46.9116C193.415 46.6939 193.415 46.1497 193.415 45.7143Z" fill="#333333"/>
<path d="M200.163 40.4898L202.122 40.1633V42.2313H204.517V43.864H202.122V46.2585C202.122 46.6939 202.231 47.0204 202.34 47.2381C202.449 47.4558 202.775 47.5646 203.211 47.5646C203.429 47.5646 203.646 47.5646 203.864 47.4558C204.082 47.3469 204.299 47.3469 204.517 47.2381L204.843 48.7619C204.626 48.8708 204.299 48.9796 204.082 48.9796C203.755 49.0884 203.429 49.0884 202.993 49.0884C202.449 49.0884 202.014 48.9796 201.687 48.8708C201.36 48.7619 201.034 48.5442 200.816 48.2177C200.599 48 200.49 47.6735 200.381 47.2381C200.272 46.9116 200.272 46.4762 200.272 46.0408V40.4898H200.163Z" fill="#333333"/>
<path d="M208.327 42.0136C208.871 42.0136 209.415 42.1225 209.742 42.2313C210.177 42.3401 210.395 42.5578 210.721 42.7755C210.939 42.9932 211.156 43.3197 211.265 43.6463C211.374 43.9728 211.374 44.4082 211.374 44.8435V48.9796C211.048 49.0884 210.721 49.0884 210.177 49.1973C209.633 49.3061 209.088 49.3061 208.327 49.3061C207.891 49.3061 207.456 49.3061 207.129 49.1973C206.803 49.0884 206.476 48.9796 206.15 48.7619C205.932 48.5442 205.714 48.3265 205.497 48.1088C205.388 47.7823 205.279 47.4558 205.279 47.0204C205.279 46.585 205.388 46.2585 205.497 46.0408C205.605 45.7143 205.823 45.4966 206.15 45.3878C206.476 45.1701 206.694 45.0612 207.129 45.0612C207.565 45.0612 207.891 44.9524 208.218 44.9524C208.435 44.9524 208.653 44.9524 208.871 44.9524C209.088 44.9524 209.197 44.9524 209.306 45.0612V44.8435C209.306 44.517 209.197 44.1905 208.98 44.0816C208.762 43.8639 208.435 43.7551 207.891 43.7551C207.565 43.7551 207.238 43.7551 206.912 43.864C206.585 43.864 206.259 43.9728 206.041 44.0816L205.823 42.449C205.932 42.449 206.041 42.3401 206.259 42.3401C206.476 42.3401 206.585 42.2313 206.803 42.2313C207.02 42.2313 207.238 42.1225 207.456 42.1225C207.891 42.0136 208.109 42.0136 208.327 42.0136ZM208.544 47.7823C208.762 47.7823 208.871 47.7823 209.088 47.7823C209.306 47.7823 209.415 47.7823 209.524 47.7823V46.2585C209.415 46.2585 209.306 46.2585 209.197 46.2585C209.088 46.2585 208.871 46.2585 208.762 46.2585C208.544 46.2585 208.435 46.2585 208.218 46.2585C208.109 46.2585 207.891 46.3674 207.782 46.3674C207.673 46.4762 207.565 46.4762 207.456 46.585C207.347 46.6939 207.347 46.8027 207.347 47.0204C207.347 47.3469 207.456 47.5646 207.673 47.6735C207.891 47.6735 208.109 47.7823 208.544 47.7823Z" fill="#333333"/>
<path d="M214.966 47.1293C214.966 47.347 214.966 47.4558 214.966 47.5646C214.966 47.6735 214.966 47.6735 214.966 47.7823C214.966 48 214.966 48.3265 214.857 48.6531C214.857 48.9796 214.748 49.1973 214.639 49.5238C214.53 49.8504 214.422 50.068 214.313 50.3946C214.204 50.7211 213.986 50.9388 213.877 51.2653L212.354 50.8299C212.571 50.2857 212.68 49.7415 212.789 49.1973C212.898 48.6531 212.898 48.2177 212.898 47.8912C212.898 47.8912 212.898 47.7823 212.898 47.6735C212.898 47.5646 212.898 47.4558 212.898 47.4558C212.898 47.347 212.898 47.2381 212.898 47.2381C212.898 47.1293 212.898 47.1293 212.898 47.1293H214.966Z" fill="#333333"/>
<path d="M126.476 53.9865C127.02 53.9865 127.565 54.0953 127.891 54.2041C128.218 54.313 128.544 54.5307 128.762 54.7484C128.98 54.966 129.088 55.2926 129.088 55.6191C129.088 55.9456 129.088 56.381 128.98 56.8164L128.218 60.9524C127.891 61.0613 127.565 61.0613 127.02 61.1701C126.476 61.279 125.932 61.279 125.17 61.279C124.735 61.279 124.299 61.279 123.973 61.1701C123.646 61.0613 123.32 60.9524 123.102 60.7347C122.884 60.5171 122.667 60.2994 122.667 60.0817C122.558 59.7552 122.558 59.4286 122.667 58.9933C122.776 58.5579 122.884 58.2313 123.102 58.0137C123.32 57.6871 123.537 57.4694 123.864 57.3606C124.191 57.1429 124.517 57.0341 124.844 57.0341C125.17 57.0341 125.605 56.9252 125.932 56.9252C126.15 56.9252 126.367 56.9252 126.585 56.9252C126.803 56.9252 126.912 56.9252 127.02 57.0341V56.8164C127.129 56.4898 127.02 56.1633 126.912 56.0545C126.803 55.9456 126.367 55.7279 125.932 55.7279C125.605 55.7279 125.279 55.7279 124.952 55.8368C124.626 55.8368 124.299 55.9456 124.082 56.0545V54.4218C124.191 54.4218 124.299 54.313 124.517 54.313C124.735 54.313 124.844 54.2041 125.061 54.2041C125.279 54.2041 125.497 54.0953 125.714 54.0953C126.041 53.9864 126.259 53.9865 126.476 53.9865ZM125.605 59.7552C125.823 59.7552 125.932 59.7552 126.15 59.7552C126.367 59.7552 126.476 59.7552 126.585 59.7552L126.803 58.2313C126.694 58.2313 126.585 58.2313 126.476 58.2313C126.367 58.2313 126.15 58.2313 126.041 58.2313C125.823 58.2313 125.714 58.2313 125.497 58.2313C125.279 58.2313 125.17 58.3402 125.061 58.3402C124.952 58.449 124.844 58.449 124.735 58.5579C124.626 58.6667 124.626 58.7756 124.517 58.9933C124.517 59.3198 124.517 59.5375 124.735 59.6463C124.952 59.6463 125.279 59.7552 125.605 59.7552Z" fill="#824F9E"/>
<path d="M133.442 57.6871C133.551 57.0341 133.769 56.4898 133.986 56.0545C134.204 55.6191 134.531 55.1837 134.966 54.8572C135.292 54.5307 135.728 54.313 136.163 54.2041C136.599 54.0953 137.034 53.9865 137.469 53.9865C138.449 53.9865 139.211 54.313 139.646 54.8572C140.082 55.5103 140.19 56.381 140.082 57.4694C140.082 57.5783 140.082 57.6871 139.973 57.796C139.973 57.9048 139.864 58.0137 139.864 58.1225H135.401C135.401 58.5579 135.51 58.8844 135.837 59.1021C136.163 59.3198 136.599 59.4286 137.143 59.4286C137.469 59.4286 137.905 59.4286 138.231 59.3198C138.558 59.2109 138.884 59.2109 139.102 59.1021V60.7347C138.993 60.7347 138.884 60.8436 138.667 60.8436C138.449 60.8436 138.231 60.9524 138.014 60.9524C137.796 60.9524 137.578 61.0613 137.252 61.0613C137.034 61.0613 136.707 61.0613 136.49 61.0613C135.837 61.0613 135.292 60.9524 134.857 60.7347C134.422 60.5171 134.095 60.2994 133.877 59.9728C133.66 59.6463 133.442 59.3198 133.442 58.8844C133.333 58.6667 133.333 58.2313 133.442 57.6871ZM138.231 56.9252C138.231 56.7075 138.231 56.5987 138.231 56.4899C138.231 56.381 138.122 56.1633 138.122 56.0545C138.014 55.9456 137.905 55.8368 137.796 55.7279C137.687 55.6191 137.469 55.6191 137.252 55.6191C137.034 55.6191 136.816 55.6191 136.707 55.7279C136.599 55.8368 136.381 55.9456 136.272 56.0545C136.163 56.1633 136.054 56.2722 135.946 56.4899C135.837 56.5987 135.837 56.8164 135.728 57.0341H138.231V56.9252Z" fill="#824F9E"/>
<path d="M147.048 60.8436C146.83 60.8436 146.612 60.9524 146.395 60.9524C146.177 60.9524 145.959 61.0613 145.633 61.0613C145.415 61.0613 145.088 61.1701 144.871 61.1701C144.653 61.1701 144.327 61.1701 144.109 61.1701C143.565 61.1701 143.02 61.0613 142.585 60.9524C142.15 60.7347 141.823 60.517 141.605 60.1905C141.388 59.864 141.17 59.5375 141.061 59.1021C140.952 58.6667 140.952 58.1225 141.061 57.5783C141.17 57.0341 141.279 56.4898 141.497 56.0545C141.714 55.6191 142.041 55.1837 142.259 54.8572C142.585 54.5307 142.912 54.313 143.347 54.0953C143.782 53.8776 144.218 53.8776 144.653 53.8776C144.98 53.8776 145.197 53.8776 145.415 53.9864C145.633 53.9864 145.85 54.0953 146.068 54.2041L146.612 51.0477L148.68 50.7211L147.048 60.8436ZM143.129 57.5783C143.02 58.2313 143.02 58.6667 143.238 58.9932C143.456 59.3198 143.782 59.5375 144.327 59.5375C144.544 59.5375 144.653 59.5375 144.871 59.5375C144.98 59.5375 145.197 59.5375 145.197 59.5375L145.85 55.9456C145.742 55.8368 145.633 55.8368 145.415 55.7279C145.197 55.7279 144.98 55.6191 144.871 55.6191C144 55.7279 143.347 56.381 143.129 57.5783Z" fill="#824F9E"/>
<path d="M154.776 60.8436C154.449 60.9524 154.014 61.0612 153.469 61.0612C152.925 61.1701 152.381 61.1701 151.837 61.1701C151.293 61.1701 150.748 61.0612 150.422 60.9524C150.095 60.8436 149.769 60.6259 149.66 60.2993C149.442 59.9728 149.333 59.6463 149.333 59.3197C149.333 58.8844 149.333 58.449 149.442 58.0136L150.095 54.2041H152.054L151.401 57.7959C151.293 58.449 151.293 58.8844 151.401 59.2109C151.51 59.5374 151.837 59.6463 152.272 59.6463C152.381 59.6463 152.599 59.6463 152.708 59.6463C152.816 59.6463 153.034 59.6463 153.143 59.6463L154.122 54.3129H156.082L154.776 60.8436Z" fill="#824F9E"/>
<path d="M156.844 57.6871C156.952 57.1429 157.061 56.7075 157.388 56.2722C157.605 55.8368 157.932 55.4014 158.259 55.0749C158.585 54.7484 159.02 54.5307 159.565 54.313C160 54.0953 160.544 53.9865 161.088 53.9865C161.415 53.9865 161.742 53.9864 162.068 54.0953C162.395 54.2041 162.612 54.2041 162.939 54.4218L162.286 55.9456C162.068 55.8368 161.959 55.8368 161.742 55.7279C161.524 55.7279 161.306 55.6191 160.98 55.6191C160.435 55.6191 159.891 55.8368 159.565 56.1633C159.238 56.4899 159.02 57.0341 158.912 57.5783C158.803 58.2313 158.803 58.6667 159.02 58.9933C159.238 59.3198 159.674 59.5375 160.327 59.5375C160.544 59.5375 160.871 59.5375 161.088 59.4286C161.415 59.4286 161.633 59.3198 161.85 59.2109V60.8436C161.633 60.9524 161.306 61.0613 160.98 61.0613C160.653 61.0613 160.218 61.1701 159.782 61.1701C159.129 61.1701 158.585 61.0613 158.15 60.8436C157.714 60.6259 157.388 60.4082 157.17 60.0817C156.952 59.7552 156.735 59.3198 156.735 58.8844C156.735 58.6667 156.844 58.1225 156.844 57.6871Z" fill="#824F9E"/>
<path d="M166.639 53.9865C167.184 53.9865 167.728 54.0953 168.054 54.2041C168.381 54.313 168.707 54.5307 168.925 54.7484C169.143 54.966 169.252 55.2926 169.252 55.6191C169.252 55.9456 169.252 56.381 169.143 56.8164L168.381 60.9524C168.054 61.0613 167.728 61.0613 167.184 61.1701C166.639 61.279 166.095 61.279 165.333 61.279C164.898 61.279 164.463 61.279 164.136 61.1701C163.81 61.0613 163.483 60.9524 163.265 60.7347C163.048 60.5171 162.83 60.2994 162.83 60.0817C162.721 59.7552 162.721 59.4286 162.83 58.9933C162.939 58.5579 163.048 58.2313 163.265 58.0137C163.483 57.6871 163.701 57.4694 164.027 57.3606C164.354 57.1429 164.68 57.0341 165.007 57.0341C165.333 57.0341 165.769 56.9252 166.095 56.9252C166.313 56.9252 166.531 56.9252 166.748 56.9252C166.966 56.9252 167.075 56.9252 167.184 57.0341V56.8164C167.293 56.4898 167.184 56.1633 167.075 56.0545C166.966 55.9456 166.531 55.7279 166.095 55.7279C165.769 55.7279 165.442 55.7279 165.116 55.8368C164.789 55.8368 164.463 55.9456 164.245 56.0545V54.4218C164.354 54.4218 164.463 54.313 164.68 54.313C164.898 54.313 165.007 54.2041 165.224 54.2041C165.442 54.2041 165.66 54.0953 165.878 54.0953C166.095 53.9864 166.422 53.9865 166.639 53.9865ZM165.769 59.7552C165.986 59.7552 166.095 59.7552 166.313 59.7552C166.531 59.7552 166.639 59.7552 166.748 59.7552L166.966 58.2313C166.857 58.2313 166.748 58.2313 166.639 58.2313C166.531 58.2313 166.313 58.2313 166.204 58.2313C165.986 58.2313 165.878 58.2313 165.66 58.2313C165.442 58.2313 165.333 58.3402 165.224 58.3402C165.116 58.449 165.007 58.449 164.898 58.5579C164.789 58.6667 164.789 58.7756 164.68 58.9933C164.68 59.3198 164.68 59.5375 164.898 59.6463C165.116 59.6463 165.333 59.7552 165.769 59.7552Z" fill="#824F9E"/>
<path d="M173.497 61.6055C173.714 61.7143 173.932 61.932 174.041 62.1497C174.15 62.3674 174.15 62.5851 174.041 62.6939C173.932 63.1293 173.714 63.4558 173.388 63.6735C173.061 63.8912 172.517 64.0001 171.973 64.0001C171.755 64.0001 171.537 64.0001 171.429 64.0001C171.211 64.0001 171.102 63.8912 170.884 63.8912L171.32 62.6939C171.429 62.6939 171.537 62.6939 171.646 62.8028C171.755 62.8028 171.973 62.9116 172.082 62.9116C172.19 62.9116 172.299 62.9116 172.408 62.8028C172.517 62.8028 172.626 62.6939 172.626 62.5851C172.626 62.4762 172.626 62.3674 172.517 62.2586C172.408 62.1497 172.299 62.1497 172.082 62.0409H171.973C172.082 61.932 172.082 61.8232 172.19 61.6055C172.299 61.4967 172.408 61.279 172.408 61.1701C171.973 61.0613 171.646 60.9524 171.32 60.7347C170.993 60.5171 170.776 60.2994 170.667 59.9728C170.558 59.6463 170.449 59.3198 170.34 58.8844C170.231 58.449 170.34 58.1225 170.449 57.6871C170.558 57.1429 170.667 56.7075 170.993 56.2722C171.211 55.8368 171.537 55.4014 171.864 55.0749C172.19 54.7484 172.626 54.5307 173.17 54.313C173.605 54.0953 174.15 53.9865 174.694 53.9865C175.02 53.9865 175.347 53.9864 175.673 54.0953C176 54.2041 176.218 54.2041 176.544 54.4218L175.891 55.9456C175.673 55.8368 175.565 55.8368 175.347 55.7279C175.129 55.7279 174.912 55.6191 174.585 55.6191C174.041 55.6191 173.497 55.8368 173.17 56.1633C172.844 56.4899 172.626 57.0341 172.517 57.5783C172.408 58.2313 172.408 58.6667 172.626 58.9933C172.844 59.3198 173.279 59.5375 173.932 59.5375C174.15 59.5375 174.476 59.5375 174.694 59.4286C175.02 59.4286 175.238 59.3198 175.456 59.2109V60.8436C175.238 60.9524 175.02 60.9524 174.694 61.0613C174.367 61.1701 174.041 61.1701 173.714 61.1701C173.714 61.279 173.605 61.279 173.605 61.3878C173.497 61.4967 173.497 61.6055 173.497 61.6055Z" fill="#824F9E"/>
<path d="M180.136 53.9865C180.68 53.9865 181.224 54.0953 181.551 54.2042C181.878 54.313 182.204 54.5307 182.422 54.7484C182.639 54.9661 182.748 55.2926 182.748 55.6191C182.748 55.9457 182.748 56.381 182.639 56.8164L181.878 60.9525C181.551 61.0613 181.224 61.0613 180.68 61.1702C180.136 61.279 179.592 61.279 178.83 61.279C178.395 61.279 177.959 61.279 177.633 61.1702C177.306 61.0613 176.98 60.9525 176.762 60.7348C176.544 60.5171 176.327 60.2994 176.327 60.0817C176.218 59.7552 176.218 59.4287 176.327 58.9933C176.435 58.5579 176.544 58.2314 176.762 58.0137C176.98 57.6872 177.197 57.4695 177.524 57.3606C177.85 57.1429 178.177 57.0341 178.503 57.0341C178.83 57.0341 179.265 56.9253 179.592 56.9253C179.809 56.9253 180.027 56.9253 180.245 56.9253C180.463 56.9253 180.571 56.9253 180.68 57.0341V56.8164C180.789 56.4899 180.68 56.1634 180.571 56.0545C180.463 55.9457 180.027 55.728 179.592 55.728C179.265 55.728 178.939 55.728 178.612 55.8368C178.286 55.8368 177.959 55.9457 177.741 56.0545V54.4219C177.85 54.4219 177.959 54.313 178.177 54.313C178.395 54.313 178.503 54.2042 178.721 54.2042C178.939 54.2042 179.156 54.0953 179.374 54.0953C179.701 53.9865 179.918 53.9865 180.136 53.9865ZM183.075 51.8096C182.966 51.9185 182.857 52.1361 182.748 52.245C182.639 52.3538 182.531 52.5715 182.313 52.6804C182.204 52.7892 181.986 52.8981 181.769 53.0069C181.551 53.1157 181.442 53.1157 181.224 53.1157C181.116 53.1157 180.898 53.1157 180.789 53.0069C180.68 53.0069 180.571 52.8981 180.463 52.8981C180.354 52.7892 180.245 52.7892 180.136 52.7892C180.027 52.7892 179.918 52.6804 179.701 52.6804C179.483 52.6804 179.374 52.7892 179.265 52.8981C179.156 53.0069 179.048 53.1157 178.939 53.3334L178.068 52.6804C178.177 52.5715 178.286 52.3538 178.395 52.245C178.503 52.1361 178.612 51.9185 178.83 51.8096C178.939 51.7008 179.156 51.5919 179.374 51.4831C179.592 51.3742 179.701 51.3742 179.918 51.3742C180.027 51.3742 180.245 51.3742 180.354 51.4831C180.463 51.4831 180.571 51.5919 180.68 51.5919C180.789 51.7008 180.898 51.7008 181.007 51.7008C181.116 51.7008 181.224 51.8096 181.442 51.8096C181.66 51.8096 181.769 51.7008 181.878 51.5919C181.986 51.4831 182.095 51.3742 182.204 51.1566L183.075 51.8096ZM179.265 59.7552C179.483 59.7552 179.592 59.7552 179.809 59.7552C180.027 59.7552 180.136 59.7552 180.245 59.7552L180.463 58.2314C180.354 58.2314 180.245 58.2314 180.136 58.2314C180.027 58.2314 179.81 58.2314 179.701 58.2314C179.483 58.2314 179.374 58.2314 179.156 58.2314C178.939 58.2314 178.83 58.3402 178.721 58.3402C178.612 58.4491 178.503 58.4491 178.395 58.5579C178.286 58.6668 178.286 58.7756 178.177 58.9933C178.177 59.3198 178.177 59.5375 178.395 59.6464C178.612 59.6464 178.939 59.7552 179.265 59.7552Z" fill="#824F9E"/>
<path d="M190.803 57.6871C190.694 58.2313 190.585 58.7756 190.259 59.2109C190.041 59.6463 189.714 60.0817 189.388 60.4082C189.061 60.7347 188.626 60.9524 188.191 61.1701C187.755 61.3878 187.211 61.3878 186.776 61.3878C186.231 61.3878 185.796 61.279 185.469 61.1701C185.034 60.9524 184.816 60.7347 184.49 60.4082C184.272 60.0817 184.054 59.7552 183.946 59.2109C183.837 58.7756 183.837 58.2313 183.946 57.6871C184.054 57.1429 184.163 56.5987 184.49 56.1633C184.816 55.7279 185.034 55.2926 185.361 54.966C185.687 54.6395 186.123 54.4218 186.558 54.2041C186.993 53.9865 187.429 53.9865 187.973 53.9865C188.517 53.9865 188.952 54.0953 189.279 54.2041C189.714 54.4218 189.932 54.6395 190.259 54.966C190.476 55.2926 190.694 55.6191 190.803 56.1633C190.912 56.5987 190.912 57.1429 190.803 57.6871ZM188.735 57.6871C188.844 57.0341 188.844 56.5987 188.626 56.2722C188.408 55.9456 188.082 55.7279 187.646 55.7279C187.211 55.7279 186.776 55.9456 186.558 56.2722C186.231 56.5987 186.014 57.1429 185.905 57.6871C185.796 58.3402 185.796 58.7756 186.014 59.1021C186.231 59.4286 186.558 59.6463 186.993 59.6463C187.429 59.6463 187.864 59.4286 188.082 59.1021C188.517 58.7756 188.626 58.2313 188.735 57.6871Z" fill="#824F9E"/>
<path d="M198.639 53.9865C199.184 53.9865 199.728 54.0953 200.054 54.2041C200.381 54.313 200.707 54.5307 200.925 54.7484C201.143 54.966 201.252 55.2926 201.252 55.6191C201.252 55.9456 201.252 56.381 201.143 56.8164L200.381 60.9524C200.054 61.0613 199.728 61.0613 199.184 61.1701C198.639 61.279 198.095 61.279 197.333 61.279C196.898 61.279 196.463 61.279 196.136 61.1701C195.81 61.0613 195.483 60.9524 195.265 60.7347C195.048 60.5171 194.83 60.2994 194.83 60.0817C194.721 59.7552 194.721 59.4286 194.83 58.9933C194.939 58.5579 195.048 58.2313 195.265 58.0137C195.483 57.6871 195.701 57.4694 196.027 57.3606C196.354 57.1429 196.68 57.0341 197.007 57.0341C197.333 57.0341 197.769 56.9252 198.095 56.9252C198.313 56.9252 198.531 56.9252 198.748 56.9252C198.966 56.9252 199.075 56.9252 199.184 57.0341V56.8164C199.293 56.4898 199.184 56.1633 199.075 56.0545C198.966 55.9456 198.531 55.7279 198.095 55.7279C197.769 55.7279 197.442 55.7279 197.116 55.8368C196.789 55.8368 196.463 55.9456 196.245 56.0545V54.4218C196.354 54.4218 196.463 54.313 196.68 54.313C196.898 54.313 197.007 54.2041 197.224 54.2041C197.442 54.2041 197.66 54.0953 197.878 54.0953C198.095 53.9864 198.313 53.9865 198.639 53.9865ZM197.769 59.7552C197.986 59.7552 198.095 59.7552 198.313 59.7552C198.531 59.7552 198.639 59.7552 198.748 59.7552L198.966 58.2313C198.857 58.2313 198.748 58.2313 198.639 58.2313C198.531 58.2313 198.313 58.2313 198.204 58.2313C197.986 58.2313 197.878 58.2313 197.66 58.2313C197.442 58.2313 197.333 58.3402 197.224 58.3402C197.116 58.449 197.007 58.449 196.898 58.5579C196.789 58.6667 196.789 58.7756 196.68 58.9933C196.68 59.3198 196.68 59.5375 196.898 59.6463C197.116 59.6463 197.333 59.7552 197.769 59.7552Z" fill="#824F9E"/>
<path d="M203.864 61.1701C203.537 60.2993 203.32 59.2109 202.993 58.1225C202.776 56.9252 202.558 55.619 202.34 54.3129H204.408C204.408 54.6395 204.517 55.0748 204.517 55.4014C204.517 55.8367 204.626 56.1633 204.626 56.5986C204.735 57.034 204.735 57.3605 204.844 57.7959C204.952 58.2313 204.952 58.5578 205.061 58.8844C205.279 58.5578 205.388 58.2313 205.606 57.7959C205.823 57.3605 206.041 57.034 206.259 56.5986C206.476 56.1633 206.694 55.8367 206.803 55.4014C207.02 54.966 207.129 54.6395 207.347 54.3129H209.415C208.762 55.7279 208.109 57.034 207.456 58.1225C206.803 59.3197 206.15 60.2993 205.497 61.1701H203.864Z" fill="#824F9E"/>
<path d="M212.789 53.9865C213.333 53.9865 213.878 54.0953 214.204 54.2041C214.531 54.313 214.857 54.5307 215.075 54.7484C215.293 54.966 215.401 55.2926 215.401 55.6191C215.401 55.9456 215.401 56.381 215.293 56.8164L214.531 60.9524C214.204 61.0613 213.878 61.0613 213.333 61.1701C212.789 61.279 212.245 61.279 211.483 61.279C211.048 61.279 210.612 61.279 210.286 61.1701C209.959 61.0613 209.633 60.9524 209.415 60.7347C209.197 60.5171 208.98 60.2994 208.98 60.0817C208.871 59.7552 208.871 59.4286 208.98 58.9933C209.089 58.5579 209.197 58.2313 209.415 58.0137C209.633 57.6871 209.85 57.4694 210.177 57.3606C210.504 57.1429 210.83 57.0341 211.157 57.0341C211.483 57.0341 211.918 56.9252 212.245 56.9252C212.463 56.9252 212.68 56.9252 212.898 56.9252C213.116 56.9252 213.225 56.9252 213.333 57.0341V56.8164C213.442 56.4898 213.333 56.1633 213.225 56.0545C213.116 55.9456 212.68 55.7279 212.245 55.7279C211.918 55.7279 211.592 55.7279 211.265 55.8368C210.939 55.8368 210.612 55.9456 210.395 56.0545V54.4218C210.504 54.4218 210.612 54.313 210.83 54.313C211.048 54.313 211.157 54.2041 211.374 54.2041C211.592 54.2041 211.81 54.0953 212.027 54.0953C212.354 53.9864 212.572 53.9865 212.789 53.9865ZM211.918 59.7552C212.136 59.7552 212.245 59.7552 212.463 59.7552C212.68 59.7552 212.789 59.7552 212.898 59.7552L213.116 58.2313C213.007 58.2313 212.898 58.2313 212.789 58.2313C212.68 58.2313 212.463 58.2313 212.354 58.2313C212.136 58.2313 212.027 58.2313 211.81 58.2313C211.592 58.2313 211.483 58.3402 211.374 58.3402C211.265 58.449 211.157 58.449 211.048 58.5579C210.939 58.6667 210.939 58.7756 210.83 58.9933C210.83 59.3198 210.83 59.5375 211.048 59.6463C211.374 59.6463 211.592 59.7552 211.918 59.7552Z" fill="#824F9E"/>
<path d="M217.578 54.4219C217.905 54.313 218.34 54.2042 218.884 54.2042C219.428 54.0953 219.973 54.0953 220.517 54.0953C221.061 54.0953 221.605 54.2042 221.932 54.313C222.258 54.4219 222.585 54.6396 222.694 54.9661C222.911 55.2926 223.02 55.6191 223.02 55.9457C223.02 56.3811 223.02 56.8164 222.911 57.2518L222.258 61.1702H220.299L220.952 57.4695C221.061 56.8164 221.061 56.3811 220.952 56.1634C220.843 55.9457 220.517 55.728 220.081 55.728C219.973 55.728 219.755 55.728 219.646 55.728C219.537 55.728 219.32 55.728 219.211 55.728L218.231 61.0613H216.272L217.578 54.4219Z" fill="#824F9E"/>
<path d="M227.374 61.6055C227.592 61.7143 227.809 61.932 227.918 62.1497C228.027 62.3674 228.027 62.5851 227.918 62.6939C227.809 63.1293 227.592 63.4558 227.265 63.6735C226.939 63.8912 226.394 64.0001 225.85 64.0001C225.633 64.0001 225.415 64.0001 225.306 64.0001C225.088 64.0001 224.979 63.8912 224.762 63.8912L225.197 62.6939C225.306 62.6939 225.415 62.6939 225.524 62.8028C225.633 62.8028 225.85 62.9116 225.959 62.9116C226.068 62.9116 226.177 62.9116 226.286 62.8028C226.394 62.8028 226.503 62.6939 226.503 62.5851C226.503 62.4762 226.503 62.3674 226.394 62.2586C226.286 62.1497 226.177 62.1497 225.959 62.0409H225.85C225.959 61.932 225.959 61.8232 226.068 61.6055C226.177 61.4967 226.286 61.279 226.286 61.1701C225.85 61.0613 225.524 60.9524 225.197 60.7347C224.871 60.5171 224.653 60.2994 224.544 59.9728C224.435 59.6463 224.326 59.3198 224.218 58.8844C224.109 58.449 224.218 58.1225 224.326 57.6871C224.435 57.1429 224.544 56.7075 224.871 56.2722C225.088 55.8368 225.415 55.4014 225.741 55.0749C226.068 54.7484 226.503 54.5307 227.048 54.313C227.483 54.0953 228.027 53.9865 228.571 53.9865C228.898 53.9865 229.224 53.9864 229.551 54.0953C229.877 54.2041 230.095 54.2041 230.422 54.4218L229.769 55.9456C229.551 55.8368 229.442 55.8368 229.224 55.7279C229.007 55.7279 228.789 55.6191 228.462 55.6191C227.918 55.6191 227.374 55.8368 227.048 56.1633C226.721 56.4899 226.503 57.0341 226.394 57.5783C226.286 58.2313 226.286 58.6667 226.503 58.9933C226.721 59.3198 227.156 59.5375 227.809 59.5375C228.027 59.5375 228.354 59.5375 228.571 59.4286C228.898 59.4286 229.116 59.3198 229.333 59.2109V60.8436C229.116 60.9524 228.898 60.9524 228.571 61.0613C228.245 61.1701 227.918 61.1701 227.592 61.1701C227.592 61.279 227.483 61.279 227.483 61.3878C227.483 61.4967 227.483 61.6055 227.374 61.6055Z" fill="#824F9E"/>
<path d="M234.122 53.9865C234.667 53.9865 235.211 54.0953 235.537 54.2041C235.864 54.313 236.19 54.5307 236.408 54.7484C236.626 54.966 236.735 55.2926 236.735 55.6191C236.735 55.9456 236.735 56.381 236.626 56.8164L235.864 60.9524C235.537 61.0613 235.211 61.0613 234.667 61.1701C234.122 61.279 233.578 61.279 232.816 61.279C232.381 61.279 231.946 61.279 231.619 61.1701C231.293 61.0613 230.966 60.9524 230.748 60.7347C230.531 60.5171 230.313 60.2994 230.313 60.0817C230.204 59.7552 230.204 59.4286 230.313 58.9933C230.422 58.5579 230.531 58.2313 230.748 58.0137C230.966 57.6871 231.184 57.4694 231.51 57.3606C231.837 57.1429 232.163 57.0341 232.49 57.0341C232.816 56.9252 233.252 56.9252 233.578 56.9252C233.796 56.9252 234.014 56.9252 234.231 56.9252C234.449 56.9252 234.558 56.9252 234.667 57.0341V56.8164C234.776 56.4898 234.667 56.1633 234.558 56.0545C234.449 55.9456 234.014 55.7279 233.578 55.7279C233.252 55.7279 232.925 55.7279 232.599 55.8368C232.272 55.8368 231.946 55.9456 231.728 56.0545V54.4218C231.837 54.4218 231.946 54.313 232.163 54.313C232.381 54.313 232.49 54.2041 232.708 54.2041C232.925 54.2041 233.143 54.0953 233.361 54.0953C233.687 53.9864 233.905 53.9865 234.122 53.9865ZM233.252 59.7552C233.469 59.7552 233.578 59.7552 233.796 59.7552C234.014 59.7552 234.122 59.7552 234.231 59.7552L234.449 58.2313C234.34 58.2313 234.231 58.2313 234.122 58.2313C234.014 58.2313 233.796 58.2313 233.687 58.2313C233.469 58.2313 233.361 58.2313 233.143 58.2313C232.925 58.2313 232.816 58.3402 232.708 58.3402C232.599 58.449 232.49 58.449 232.381 58.5579C232.272 58.6667 232.272 58.7756 232.163 58.9933C232.163 59.3198 232.163 59.5375 232.381 59.6463C232.599 59.6463 232.925 59.7552 233.252 59.7552Z" fill="#824F9E"/>
</svg>
