<svg width="63" height="28" viewBox="0 0 63 28" fill="none" xmlns="http://www.w3.org/2000/svg">
<path d="M1.352 27.9999L0 25.0647C0.673488 24.6978 1.21127 24.3762 1.62341 24.0997C2.03554 23.8233 2.34715 23.5318 2.55825 23.2353C2.76934 22.9387 2.9151 22.5869 2.99049 22.1848C3.06588 21.7827 3.10608 21.2651 3.10608 20.6318V7.16705H6.96105V20.5765C6.96105 21.6722 6.88063 22.5869 6.71477 23.3257C6.55394 24.0645 6.26243 24.6978 5.8503 25.2256C5.43816 25.7533 4.86519 26.2257 4.13642 26.6479C3.40765 27.0701 2.47783 27.5225 1.34698 27.9999H1.352ZM3.10608 4.83497V1.58313H6.96105V4.83497H3.10608Z" fill="#008040"/>
<path d="M13.8963 21.9284C12.3986 21.9284 11.2727 21.5515 10.5138 20.7925C9.75488 20.0336 9.37793 18.8877 9.37793 17.3547C9.37793 16.2791 9.56892 15.4398 9.95592 14.8367C10.3379 14.2336 10.9109 13.7913 11.6698 13.5148C12.4287 13.2384 13.3535 13.0675 14.4492 13.0122L17.9574 12.6956V11.8311C17.9574 11.1425 17.7865 10.655 17.4397 10.3786C17.0929 10.1022 16.5853 9.96143 15.9168 9.96143C15.379 9.96143 14.7608 9.98154 14.0622 10.0217C13.3636 10.062 12.67 10.1072 11.9915 10.1675C11.3079 10.2228 10.7199 10.2831 10.2223 10.3384L10.1067 7.63438C10.6043 7.51878 11.2024 7.39816 11.906 7.27251C12.6046 7.14686 13.3384 7.04634 14.1074 6.97095C14.8764 6.89555 15.5851 6.85535 16.2385 6.85535C17.4648 6.85535 18.4901 7.01115 19.3194 7.31774C20.1437 7.62433 20.7669 8.12693 21.1891 8.83058C21.6113 9.52919 21.8224 10.4741 21.8224 11.6653V18.2544C21.8626 18.5258 22.0033 18.7268 22.2546 18.8726C22.5059 19.0183 22.7924 19.1189 23.1191 19.1741L23.0336 21.8229C22.5713 21.843 22.1239 21.853 21.6816 21.853C21.2394 21.853 20.8674 21.8229 20.5608 21.7676C20.1185 21.7123 19.7416 21.5967 19.425 21.4208C19.1083 21.2499 18.852 21.0639 18.661 20.8729C18.3544 21.0086 17.9423 21.1594 17.4246 21.3353C16.9069 21.5062 16.344 21.652 15.7409 21.7676C15.1378 21.8832 14.5296 21.9385 13.9114 21.9385L13.8963 21.9284ZM14.8161 19.0786C15.178 19.0786 15.565 19.0384 15.9671 18.963C16.3691 18.8877 16.7511 18.7972 17.1029 18.6916C17.4598 18.5861 17.7412 18.4856 17.9523 18.3901V15.083L15.0171 15.3393C14.3839 15.3996 13.9265 15.5856 13.6501 15.9022C13.3736 16.2188 13.2329 16.6662 13.2329 17.2391C13.2329 17.8121 13.3636 18.2644 13.6199 18.5911C13.8812 18.9178 14.2783 19.0786 14.8161 19.0786Z" fill="#008040"/>
<path d="M30.0706 21.9585C29.0151 21.9585 28.1607 21.8027 27.5073 21.4961C26.8539 21.1895 26.3916 20.6567 26.1101 19.8978C25.8337 19.1389 25.6929 18.0784 25.6929 16.7163V10.3584H23.9941V7.16184H25.6929V3.33704H29.5177V7.16687H33.2018V10.3634H29.5177V15.7161C29.5177 16.465 29.5529 17.048 29.6183 17.4702C29.6836 17.8924 29.8344 18.1889 30.0656 18.3598C30.2968 18.5307 30.6486 18.6212 31.1311 18.6212C31.2668 18.6212 31.4678 18.6111 31.7342 18.591C32.0006 18.5709 32.272 18.5508 32.5384 18.5307C32.8048 18.5106 33.0259 18.4905 33.2018 18.4754L33.3174 21.5564C32.855 21.6318 32.3072 21.7172 31.6639 21.8177C31.0205 21.9132 30.4878 21.9635 30.0656 21.9635L30.0706 21.9585Z" fill="#008040"/>
<path d="M39.1073 21.9284C37.6095 21.9284 36.4837 21.5515 35.7248 20.7925C34.9658 20.0336 34.5889 18.8877 34.5889 17.3547C34.5889 16.2791 34.7799 15.4398 35.1669 14.8367C35.5488 14.2336 36.1218 13.7913 36.8807 13.5148C37.6397 13.2384 38.5645 13.0675 39.6601 13.0122L43.1683 12.6956V11.8311C43.1683 11.1425 42.9974 10.655 42.6506 10.3786C42.3038 10.1022 41.7962 9.96143 41.1277 9.96143C40.5899 9.96143 39.9717 9.98154 39.2731 10.0217C38.5745 10.062 37.8809 10.1072 37.2024 10.1675C36.5189 10.2228 35.9308 10.2831 35.4332 10.3384L35.3176 7.63438C35.8152 7.51878 36.4133 7.39816 37.117 7.27251C37.8156 7.14686 38.5494 7.04634 39.3184 6.97095C40.0873 6.89555 40.796 6.85535 41.4494 6.85535C42.6757 6.85535 43.7011 7.01115 44.5303 7.31774C45.3546 7.62433 45.9778 8.12693 46.4 8.83058C46.8222 9.52919 47.0333 10.4741 47.0333 11.6653V18.2544C47.0735 18.5258 47.2142 18.7268 47.4656 18.8726C47.7169 19.0183 48.0033 19.1189 48.33 19.1741L48.2446 21.8229C47.7822 21.843 47.3349 21.853 46.8926 21.853C46.4503 21.853 46.0784 21.8229 45.7718 21.7676C45.3295 21.7123 44.9525 21.5967 44.6359 21.4208C44.3193 21.2499 44.0629 21.0639 43.8719 20.8729C43.5654 21.0086 43.1532 21.1594 42.6355 21.3353C42.1179 21.5062 41.5549 21.652 40.9518 21.7676C40.3487 21.8832 39.7405 21.9385 39.1223 21.9385L39.1073 21.9284ZM40.027 19.0786C40.3889 19.0786 40.7759 19.0384 41.178 18.963C41.5801 18.8877 41.9621 18.7972 42.3139 18.6916C42.6707 18.5861 42.9522 18.4856 43.1633 18.3901V15.083L40.2281 15.3393C39.5948 15.3996 39.1374 15.5856 38.861 15.9022C38.5846 16.2188 38.4438 16.6662 38.4438 17.2391C38.4438 17.8121 38.5745 18.2644 38.8308 18.5911C39.0922 18.9178 39.4892 19.0786 40.027 19.0786Z" fill="#008040"/>
<path d="M51.1652 5.00592L49.4966 2.84976L55.1056 0L57.2919 2.90504L51.1602 5.00592H51.1652ZM50.9642 21.6119V7.16711H54.789V21.6119H50.9642Z" fill="#008040"/>
<path d="M58.4175 21.6118V17.3547H62.4182V21.6118H58.4175Z" fill="#008040"/>
</svg>
