<svg width="56" height="56" viewBox="0 0 56 56" fill="none" xmlns="http://www.w3.org/2000/svg">
<rect width="56" height="56" rx="12" fill="#FAFAFA"/>
<path d="M42.6665 20.6666C42.6665 16.6166 39.3833 13.3333 35.3332 13.3333C31.283 13.3333 27.9998 16.6166 27.9998 20.6666C27.9998 24.7167 31.283 28 35.3332 28C39.3833 28 42.6665 24.7167 42.6665 20.6666ZM36.0006 21.3333L36.0013 24.6713C36.0013 25.0395 35.7029 25.338 35.3346 25.338C34.9665 25.338 34.668 25.0395 34.668 24.6713L34.6673 21.3333H31.3273C30.9594 21.3333 30.6613 21.0348 30.6613 20.6667C30.6613 20.2985 30.9594 20 31.3273 20H34.6672L34.6665 16.6657C34.6665 16.2975 34.965 15.999 35.3332 15.999C35.7013 15.999 35.9998 16.2975 35.9998 16.6657L36.0005 20H39.3286C39.6965 20 39.9946 20.2985 39.9946 20.6667C39.9946 21.0348 39.6965 21.3333 39.3286 21.3333H36.0006ZM39.3332 34.3333V28.357C40.0678 27.9741 40.7408 27.489 41.3332 26.9205V34.3333C41.3332 36.644 39.5245 38.5322 37.2457 38.6598L36.9998 38.6666H18.9998C16.6891 38.6666 14.8008 36.858 14.6734 34.5792L14.6665 34.3333V21.6666C14.6665 19.3559 16.4751 17.4676 18.7539 17.3402L18.9998 17.3333H27.3308C27.067 17.9655 26.8761 18.6357 26.7684 19.3333H18.9998C17.7756 19.3333 16.7716 20.2761 16.6742 21.4753L16.6665 21.6666V22.2386L27.9998 28.2033L29.7401 27.2872C30.3248 27.7817 30.9758 28.2001 31.6781 28.5272L28.4656 30.2182C28.2157 30.3497 27.924 30.3685 27.6622 30.2746L27.5341 30.2182L16.6665 24.4986V34.3333C16.6665 35.5576 17.6093 36.5616 18.8085 36.6589L18.9998 36.6666H36.9998C38.2241 36.6666 39.2281 35.7238 39.3254 34.5246L39.3332 34.3333Z" fill="#008040"/>
</svg>
