<svg width="20" height="20" viewBox="0 0 20 20" fill="none" xmlns="http://www.w3.org/2000/svg">
<g id="arrow-circle-down">
<path id="Vector" d="M9.40817 13.0917C9.48742 13.1676 9.58088 13.227 9.68317 13.2667C9.88605 13.35 10.1136 13.35 10.3165 13.2667C10.4188 13.227 10.5123 13.1676 10.5915 13.0917L13.0915 10.5917C13.2484 10.4348 13.3366 10.2219 13.3366 10C13.3366 9.77811 13.2484 9.56528 13.0915 9.40836C12.9346 9.25144 12.7218 9.16328 12.4998 9.16328C12.2779 9.16328 12.0651 9.25144 11.9082 9.40836L10.8332 10.4917V7.50002C10.8332 7.27901 10.7454 7.06705 10.5891 6.91077C10.4328 6.75449 10.2209 6.66669 9.99984 6.66669C9.77882 6.66669 9.56686 6.75449 9.41058 6.91077C9.2543 7.06705 9.1665 7.27901 9.1665 7.50002V10.4917L8.0915 9.40836C8.01404 9.33025 7.92187 9.26826 7.82032 9.22595C7.71877 9.18364 7.60985 9.16186 7.49984 9.16186C7.38983 9.16186 7.28091 9.18364 7.17936 9.22595C7.07781 9.26826 6.98564 9.33025 6.90817 9.40836C6.83006 9.48583 6.76807 9.57799 6.72576 9.67954C6.68345 9.78109 6.66167 9.89001 6.66167 10C6.66167 10.11 6.68345 10.219 6.72576 10.3205C6.76807 10.4221 6.83006 10.5142 6.90817 10.5917L9.40817 13.0917ZM9.99984 18.3334C11.648 18.3334 13.2592 17.8446 14.6296 16.9289C16 16.0133 17.0681 14.7118 17.6988 13.1891C18.3296 11.6663 18.4946 9.99078 18.173 8.37427C17.8515 6.75776 17.0578 5.27291 15.8924 4.10747C14.727 2.94203 13.2421 2.14836 11.6256 1.82681C10.0091 1.50527 8.33353 1.6703 6.81081 2.30103C5.28809 2.93176 3.9866 3.99986 3.07092 5.37027C2.15525 6.74068 1.6665 8.35185 1.6665 10C1.6665 12.2102 2.54448 14.3298 4.10728 15.8926C4.8811 16.6664 5.79976 17.2802 6.81081 17.699C7.82186 18.1178 8.90549 18.3334 9.99984 18.3334ZM9.99984 3.33336C11.3184 3.33336 12.6073 3.72435 13.7036 4.45689C14.8 5.18944 15.6545 6.23063 16.159 7.4488C16.6636 8.66698 16.7956 10.0074 16.5384 11.3006C16.2812 12.5938 15.6462 13.7817 14.7139 14.7141C13.7815 15.6464 12.5936 16.2814 11.3004 16.5386C10.0072 16.7958 8.66679 16.6638 7.44862 16.1592C6.23044 15.6546 5.18925 14.8002 4.45671 13.7038C3.72416 12.6075 3.33317 11.3186 3.33317 10C3.33317 8.23191 4.03555 6.53622 5.28579 5.28598C6.53604 4.03574 8.23173 3.33336 9.99984 3.33336Z" fill="white"/>
</g>
</svg>
